ISO-10303-21;
HEADER;
/* Generated by software containing ST-Developer
 * from STEP Tools, Inc. (www.steptools.com) 
 */
/* OPTION: using custom schema-name function */

FILE_DESCRIPTION(
/* description */ (''),
/* implementation_level */ '2;1');

FILE_NAME(
/* name */ 'PDOA\X2\51685411\X0\360\X2\6A21578B\X0\.stp',
/* time_stamp */ '2026-01-29T16:03:43+08:00',
/* author */ (''),
/* organization */ (''),
/* preprocessor_version */ 'ST-DEVELOPER v16.7',
/* originating_system */ 'SIEMENS PLM Software NX 12.0',
/* authorisation */ '');

FILE_SCHEMA (('AUTOMOTIVE_DESIGN { 1 0 10303 214 3 1 1 1 }'));
ENDSEC;

DATA;
#10=CONTEXT_DEPENDENT_SHAPE_REPRESENTATION(#14,#28);
#11=CONTEXT_DEPENDENT_SHAPE_REPRESENTATION(#15,#29);
#12=NEXT_ASSEMBLY_USAGE_OCCURRENCE('1001',' ','BOARD',#32,#31,$);
#13=NEXT_ASSEMBLY_USAGE_OCCURRENCE('1002',' ','\X2\4E0A75358DEF677F\X0\',
#32,#30,$);
#14=(
REPRESENTATION_RELATIONSHIP(' ',' ',#51,#52)
REPRESENTATION_RELATIONSHIP_WITH_TRANSFORMATION(#16)
SHAPE_REPRESENTATION_RELATIONSHIP()
);
#15=(
REPRESENTATION_RELATIONSHIP(' ',' ',#50,#52)
REPRESENTATION_RELATIONSHIP_WITH_TRANSFORMATION(#17)
SHAPE_REPRESENTATION_RELATIONSHIP()
);
#16=ITEM_DEFINED_TRANSFORMATION(' ',' ',#1162,#1319);
#17=ITEM_DEFINED_TRANSFORMATION(' ',' ',#1162,#1320);
#18=SHAPE_REPRESENTATION_RELATIONSHIP('None',
'relationship between \X2\4E0A75358DEF677F\X0\-None and \X2\4E0A75358DEF677F\X0\-
None',#50,#20);
#19=SHAPE_REPRESENTATION_RELATIONSHIP('None',
'relationship between Board-None and Board-None',#51,#21);
#20=ADVANCED_BREP_SHAPE_REPRESENTATION('\X2\4E0A75358DEF677F\X0\-None',
(#71),#2018);
#21=ADVANCED_BREP_SHAPE_REPRESENTATION('Board-None',(#70),#2017);
#22=SHAPE_DEFINITION_REPRESENTATION(#25,#50);
#23=SHAPE_DEFINITION_REPRESENTATION(#26,#51);
#24=SHAPE_DEFINITION_REPRESENTATION(#27,#52);
#25=PRODUCT_DEFINITION_SHAPE('','',#30);
#26=PRODUCT_DEFINITION_SHAPE('','',#31);
#27=PRODUCT_DEFINITION_SHAPE('','',#32);
#28=PRODUCT_DEFINITION_SHAPE(' ','NAUO PRDDFN',#12);
#29=PRODUCT_DEFINITION_SHAPE(' ','NAUO PRDDFN',#13);
#30=PRODUCT_DEFINITION(' ','',#36,#33);
#31=PRODUCT_DEFINITION(' ','',#37,#34);
#32=PRODUCT_DEFINITION(' ','',#38,#35);
#33=PRODUCT_DEFINITION_CONTEXT('part definition',#49,'design');
#34=PRODUCT_DEFINITION_CONTEXT('part definition',#49,'design');
#35=PRODUCT_DEFINITION_CONTEXT('part definition',#49,'design');
#36=PRODUCT_DEFINITION_FORMATION_WITH_SPECIFIED_SOURCE(' ',' ',#42,
 .NOT_KNOWN.);
#37=PRODUCT_DEFINITION_FORMATION_WITH_SPECIFIED_SOURCE(' ',' ',#43,
 .NOT_KNOWN.);
#38=PRODUCT_DEFINITION_FORMATION_WITH_SPECIFIED_SOURCE(' ',' ',#44,
 .NOT_KNOWN.);
#39=PRODUCT_RELATED_PRODUCT_CATEGORY('part','',(#42));
#40=PRODUCT_RELATED_PRODUCT_CATEGORY('part','',(#43));
#41=PRODUCT_RELATED_PRODUCT_CATEGORY('part','',(#44));
#42=PRODUCT('\X2\4E0A75358DEF677F\X0\','\X2\4E0A75358DEF677F\X0\',' ',(#45));
#43=PRODUCT('Board','Board',' ',(#46));
#44=PRODUCT('UWB-AOA+V2.0.6+-+\X2\526F672C\X0\+-+\X2\526F672C\X0\_step',
'UWB-AOA+V2.0.6+-+\X2\526F672C\X0\+-+\X2\526F672C\X0\_step',' ',(#47));
#45=PRODUCT_CONTEXT(' ',#49,'mechanical');
#46=PRODUCT_CONTEXT(' ',#49,'mechanical');
#47=PRODUCT_CONTEXT(' ',#49,'mechanical');
#48=APPLICATION_PROTOCOL_DEFINITION('international standard',
'automotive_design',2010,#49);
#49=APPLICATION_CONTEXT(
'core data for automotive mechanical design processes');
#50=SHAPE_REPRESENTATION('\X2\4E0A75358DEF677F\X0\-None',(#1162),#2018);
#51=SHAPE_REPRESENTATION('Board-None',(#1162),#2017);
#52=SHAPE_REPRESENTATION('UWB-AOA+V2.0.6+-+\X2\526F672C\X0\+-+\X2\526F672C\X0\_
step-none',(#1162,#1319,#1320),#2016);
#53=PRESENTATION_LAYER_ASSIGNMENT('1','Layer 1',(#70,#71));
#54=STYLED_ITEM('',(#56),#70);
#55=STYLED_ITEM('',(#57),#71);
#56=PRESENTATION_STYLE_ASSIGNMENT((#58));
#57=PRESENTATION_STYLE_ASSIGNMENT((#59));
#58=SURFACE_STYLE_USAGE(.BOTH.,#60);
#59=SURFACE_STYLE_USAGE(.BOTH.,#61);
#60=SURFACE_SIDE_STYLE('',(#62));
#61=SURFACE_SIDE_STYLE('',(#63));
#62=SURFACE_STYLE_FILL_AREA(#64);
#63=SURFACE_STYLE_FILL_AREA(#65);
#64=FILL_AREA_STYLE('',(#66));
#65=FILL_AREA_STYLE('',(#67));
#66=FILL_AREA_STYLE_COLOUR('',#68);
#67=FILL_AREA_STYLE_COLOUR('',#69);
#68=COLOUR_RGB('Emerald',0.,0.6,0.);
#69=COLOUR_RGB('Orange',1.,0.6,0.);
#70=MANIFOLD_SOLID_BREP('',#72);
#71=MANIFOLD_SOLID_BREP('',#73);
#72=CLOSED_SHELL('',(#158,#159,#160,#161,#162,#163,#164,#165,#166,#167,
#168,#169,#170,#171,#172,#173,#174,#175,#176,#177,#178,#179,#180,#181,#182,
#183,#184,#185,#186,#187,#188,#189,#190,#191,#192,#193,#194,#195));
#73=CLOSED_SHELL('',(#196,#197,#198,#199,#200,#201,#202,#203,#204,#205,
#206,#207,#208,#209,#210,#211,#212,#213,#214,#215,#216,#217,#218,#219,#220,
#221,#222,#223,#224,#225));
#74=FACE_BOUND('',#354,.T.);
#75=FACE_BOUND('',#355,.T.);
#76=FACE_BOUND('',#356,.T.);
#77=FACE_BOUND('',#357,.T.);
#78=FACE_BOUND('',#358,.T.);
#79=FACE_BOUND('',#359,.T.);
#80=FACE_BOUND('',#360,.T.);
#81=FACE_BOUND('',#361,.T.);
#82=FACE_BOUND('',#362,.T.);
#83=FACE_BOUND('',#363,.T.);
#84=FACE_BOUND('',#364,.T.);
#85=FACE_BOUND('',#365,.T.);
#86=FACE_BOUND('',#366,.T.);
#87=FACE_BOUND('',#367,.T.);
#88=FACE_BOUND('',#368,.T.);
#89=FACE_BOUND('',#369,.T.);
#90=FACE_BOUND('',#370,.T.);
#91=FACE_BOUND('',#371,.T.);
#92=FACE_BOUND('',#372,.T.);
#93=FACE_BOUND('',#373,.T.);
#94=FACE_BOUND('',#374,.T.);
#95=FACE_BOUND('',#375,.T.);
#96=FACE_BOUND('',#377,.T.);
#97=FACE_BOUND('',#378,.T.);
#98=FACE_BOUND('',#379,.T.);
#99=FACE_BOUND('',#380,.T.);
#100=FACE_BOUND('',#381,.T.);
#101=FACE_BOUND('',#382,.T.);
#102=FACE_BOUND('',#384,.T.);
#103=FACE_BOUND('',#385,.T.);
#104=FACE_BOUND('',#386,.T.);
#105=FACE_BOUND('',#387,.T.);
#106=FACE_BOUND('',#388,.T.);
#107=FACE_BOUND('',#389,.T.);
#108=FACE_BOUND('',#391,.T.);
#109=FACE_BOUND('',#392,.T.);
#110=FACE_BOUND('',#393,.T.);
#111=FACE_BOUND('',#394,.T.);
#112=FACE_BOUND('',#395,.T.);
#113=FACE_BOUND('',#396,.T.);
#114=FACE_BOUND('',#398,.T.);
#115=FACE_BOUND('',#399,.T.);
#116=FACE_BOUND('',#404,.T.);
#117=FACE_BOUND('',#405,.T.);
#118=FACE_BOUND('',#406,.T.);
#119=FACE_BOUND('',#407,.T.);
#120=FACE_BOUND('',#408,.T.);
#121=FACE_BOUND('',#409,.T.);
#122=FACE_BOUND('',#410,.T.);
#123=FACE_BOUND('',#411,.T.);
#124=FACE_BOUND('',#412,.T.);
#125=FACE_BOUND('',#413,.T.);
#126=FACE_BOUND('',#414,.T.);
#127=FACE_BOUND('',#415,.T.);
#128=FACE_BOUND('',#417,.T.);
#129=FACE_BOUND('',#418,.T.);
#130=FACE_BOUND('',#420,.T.);
#131=FACE_BOUND('',#421,.T.);
#132=FACE_BOUND('',#423,.T.);
#133=FACE_BOUND('',#424,.T.);
#134=PLANE('',#1169);
#135=PLANE('',#1176);
#136=PLANE('',#1186);
#137=PLANE('',#1193);
#138=PLANE('',#1203);
#139=PLANE('',#1210);
#140=PLANE('',#1220);
#141=PLANE('',#1227);
#142=PLANE('',#1255);
#143=PLANE('',#1256);
#144=PLANE('',#1261);
#145=PLANE('',#1263);
#146=PLANE('',#1269);
#147=PLANE('',#1271);
#148=PLANE('',#1277);
#149=PLANE('',#1279);
#150=PLANE('',#1285);
#151=PLANE('',#1287);
#152=PLANE('',#1305);
#153=PLANE('',#1306);
#154=PLANE('',#1309);
#155=PLANE('',#1312);
#156=PLANE('',#1315);
#157=PLANE('',#1318);
#158=ADVANCED_FACE('',(#270),#226,.T.);
#159=ADVANCED_FACE('',(#271),#227,.T.);
#160=ADVANCED_FACE('',(#272),#134,.F.);
#161=ADVANCED_FACE('',(#273),#228,.T.);
#162=ADVANCED_FACE('',(#274),#229,.T.);
#163=ADVANCED_FACE('',(#275),#135,.F.);
#164=ADVANCED_FACE('',(#276),#230,.T.);
#165=ADVANCED_FACE('',(#277),#231,.T.);
#166=ADVANCED_FACE('',(#278),#232,.T.);
#167=ADVANCED_FACE('',(#279),#136,.F.);
#168=ADVANCED_FACE('',(#280),#233,.T.);
#169=ADVANCED_FACE('',(#281),#234,.T.);
#170=ADVANCED_FACE('',(#282),#137,.F.);
#171=ADVANCED_FACE('',(#283),#235,.T.);
#172=ADVANCED_FACE('',(#284),#236,.T.);
#173=ADVANCED_FACE('',(#285),#237,.T.);
#174=ADVANCED_FACE('',(#286),#138,.F.);
#175=ADVANCED_FACE('',(#287),#238,.T.);
#176=ADVANCED_FACE('',(#288),#239,.T.);
#177=ADVANCED_FACE('',(#289),#139,.F.);
#178=ADVANCED_FACE('',(#290),#240,.T.);
#179=ADVANCED_FACE('',(#291),#241,.T.);
#180=ADVANCED_FACE('',(#292),#242,.T.);
#181=ADVANCED_FACE('',(#293),#140,.F.);
#182=ADVANCED_FACE('',(#294),#243,.T.);
#183=ADVANCED_FACE('',(#295),#244,.T.);
#184=ADVANCED_FACE('',(#296),#141,.F.);
#185=ADVANCED_FACE('',(#297),#245,.T.);
#186=ADVANCED_FACE('',(#298),#246,.F.);
#187=ADVANCED_FACE('',(#299),#247,.F.);
#188=ADVANCED_FACE('',(#300),#248,.F.);
#189=ADVANCED_FACE('',(#301),#249,.F.);
#190=ADVANCED_FACE('',(#302),#250,.F.);
#191=ADVANCED_FACE('',(#303),#251,.F.);
#192=ADVANCED_FACE('',(#304),#252,.F.);
#193=ADVANCED_FACE('',(#305),#253,.F.);
#194=ADVANCED_FACE('',(#74,#75,#76,#77,#78,#79,#80,#81,#82),#142,.T.);
#195=ADVANCED_FACE('',(#83,#84,#85,#86,#87,#88,#89,#90,#91),#143,.F.);
#196=ADVANCED_FACE('',(#92,#93),#254,.T.);
#197=ADVANCED_FACE('',(#94,#95),#144,.F.);
#198=ADVANCED_FACE('',(#306),#145,.F.);
#199=ADVANCED_FACE('',(#96,#97),#255,.F.);
#200=ADVANCED_FACE('',(#98,#99),#256,.T.);
#201=ADVANCED_FACE('',(#100,#101),#146,.F.);
#202=ADVANCED_FACE('',(#307),#147,.F.);
#203=ADVANCED_FACE('',(#102,#103),#257,.F.);
#204=ADVANCED_FACE('',(#104,#105),#258,.T.);
#205=ADVANCED_FACE('',(#106,#107),#148,.F.);
#206=ADVANCED_FACE('',(#308),#149,.F.);
#207=ADVANCED_FACE('',(#108,#109),#259,.F.);
#208=ADVANCED_FACE('',(#110,#111),#260,.T.);
#209=ADVANCED_FACE('',(#112,#113),#150,.F.);
#210=ADVANCED_FACE('',(#309),#151,.F.);
#211=ADVANCED_FACE('',(#114,#115),#261,.F.);
#212=ADVANCED_FACE('',(#310),#262,.T.);
#213=ADVANCED_FACE('',(#311),#263,.T.);
#214=ADVANCED_FACE('',(#312),#264,.T.);
#215=ADVANCED_FACE('',(#313),#265,.T.);
#216=ADVANCED_FACE('',(#116,#117,#118,#119,#120),#152,.T.);
#217=ADVANCED_FACE('',(#121,#122,#123,#124,#125),#153,.F.);
#218=ADVANCED_FACE('',(#126,#127),#266,.T.);
#219=ADVANCED_FACE('',(#314),#154,.T.);
#220=ADVANCED_FACE('',(#128,#129),#267,.T.);
#221=ADVANCED_FACE('',(#315),#155,.T.);
#222=ADVANCED_FACE('',(#130,#131),#268,.T.);
#223=ADVANCED_FACE('',(#316),#156,.T.);
#224=ADVANCED_FACE('',(#132,#133),#269,.T.);
#225=ADVANCED_FACE('',(#317),#157,.T.);
#226=CYLINDRICAL_SURFACE('',#1165,4.06388094001);
#227=CYLINDRICAL_SURFACE('',#1168,0.06388919817892);
#228=CYLINDRICAL_SURFACE('',#1172,20.063875546846);
#229=CYLINDRICAL_SURFACE('',#1175,20.063882397301);
#230=CYLINDRICAL_SURFACE('',#1179,0.06388852608373);
#231=CYLINDRICAL_SURFACE('',#1182,4.063882044869);
#232=CYLINDRICAL_SURFACE('',#1185,0.06394285661055);
#233=CYLINDRICAL_SURFACE('',#1189,20.063882330996);
#234=CYLINDRICAL_SURFACE('',#1192,20.063879202938);
#235=CYLINDRICAL_SURFACE('',#1196,0.0638958394856);
#236=CYLINDRICAL_SURFACE('',#1199,4.06388094001);
#237=CYLINDRICAL_SURFACE('',#1202,0.06388919817892);
#238=CYLINDRICAL_SURFACE('',#1206,20.063887304119);
#239=CYLINDRICAL_SURFACE('',#1209,20.063891100295);
#240=CYLINDRICAL_SURFACE('',#1213,0.06394285661055);
#241=CYLINDRICAL_SURFACE('',#1216,4.063882044869);
#242=CYLINDRICAL_SURFACE('',#1219,0.06388852608373);
#243=CYLINDRICAL_SURFACE('',#1223,20.06388089636);
#244=CYLINDRICAL_SURFACE('',#1226,20.063884900085);
#245=CYLINDRICAL_SURFACE('',#1230,0.0638958394856);
#246=CYLINDRICAL_SURFACE('',#1233,1.59999934);
#247=CYLINDRICAL_SURFACE('',#1236,1.59999934);
#248=CYLINDRICAL_SURFACE('',#1239,1.59999934);
#249=CYLINDRICAL_SURFACE('',#1242,1.59999934);
#250=CYLINDRICAL_SURFACE('',#1245,1.59999934);
#251=CYLINDRICAL_SURFACE('',#1248,1.59999934);
#252=CYLINDRICAL_SURFACE('',#1251,1.59999934);
#253=CYLINDRICAL_SURFACE('',#1254,1.59999934);
#254=CYLINDRICAL_SURFACE('',#1259,2.);
#255=CYLINDRICAL_SURFACE('',#1264,1.6);
#256=CYLINDRICAL_SURFACE('',#1267,2.);
#257=CYLINDRICAL_SURFACE('',#1272,1.6);
#258=CYLINDRICAL_SURFACE('',#1275,2.);
#259=CYLINDRICAL_SURFACE('',#1280,1.6);
#260=CYLINDRICAL_SURFACE('',#1283,2.);
#261=CYLINDRICAL_SURFACE('',#1288,1.6);
#262=CYLINDRICAL_SURFACE('',#1291,20.063891100295);
#263=CYLINDRICAL_SURFACE('',#1294,20.063891100295);
#264=CYLINDRICAL_SURFACE('',#1297,20.063891100295);
#265=CYLINDRICAL_SURFACE('',#1300,20.063891100295);
#266=CYLINDRICAL_SURFACE('',#1308,2.);
#267=CYLINDRICAL_SURFACE('',#1311,2.);
#268=CYLINDRICAL_SURFACE('',#1314,2.);
#269=CYLINDRICAL_SURFACE('',#1317,2.);
#270=FACE_OUTER_BOUND('',#318,.T.);
#271=FACE_OUTER_BOUND('',#319,.T.);
#272=FACE_OUTER_BOUND('',#320,.T.);
#273=FACE_OUTER_BOUND('',#321,.T.);
#274=FACE_OUTER_BOUND('',#322,.T.);
#275=FACE_OUTER_BOUND('',#323,.T.);
#276=FACE_OUTER_BOUND('',#324,.T.);
#277=FACE_OUTER_BOUND('',#325,.T.);
#278=FACE_OUTER_BOUND('',#326,.T.);
#279=FACE_OUTER_BOUND('',#327,.T.);
#280=FACE_OUTER_BOUND('',#328,.T.);
#281=FACE_OUTER_BOUND('',#329,.T.);
#282=FACE_OUTER_BOUND('',#330,.T.);
#283=FACE_OUTER_BOUND('',#331,.T.);
#284=FACE_OUTER_BOUND('',#332,.T.);
#285=FACE_OUTER_BOUND('',#333,.T.);
#286=FACE_OUTER_BOUND('',#334,.T.);
#287=FACE_OUTER_BOUND('',#335,.T.);
#288=FACE_OUTER_BOUND('',#336,.T.);
#289=FACE_OUTER_BOUND('',#337,.T.);
#290=FACE_OUTER_BOUND('',#338,.T.);
#291=FACE_OUTER_BOUND('',#339,.T.);
#292=FACE_OUTER_BOUND('',#340,.T.);
#293=FACE_OUTER_BOUND('',#341,.T.);
#294=FACE_OUTER_BOUND('',#342,.T.);
#295=FACE_OUTER_BOUND('',#343,.T.);
#296=FACE_OUTER_BOUND('',#344,.T.);
#297=FACE_OUTER_BOUND('',#345,.T.);
#298=FACE_OUTER_BOUND('',#346,.T.);
#299=FACE_OUTER_BOUND('',#347,.T.);
#300=FACE_OUTER_BOUND('',#348,.T.);
#301=FACE_OUTER_BOUND('',#349,.T.);
#302=FACE_OUTER_BOUND('',#350,.T.);
#303=FACE_OUTER_BOUND('',#351,.T.);
#304=FACE_OUTER_BOUND('',#352,.T.);
#305=FACE_OUTER_BOUND('',#353,.T.);
#306=FACE_OUTER_BOUND('',#376,.T.);
#307=FACE_OUTER_BOUND('',#383,.T.);
#308=FACE_OUTER_BOUND('',#390,.T.);
#309=FACE_OUTER_BOUND('',#397,.T.);
#310=FACE_OUTER_BOUND('',#400,.T.);
#311=FACE_OUTER_BOUND('',#401,.T.);
#312=FACE_OUTER_BOUND('',#402,.T.);
#313=FACE_OUTER_BOUND('',#403,.T.);
#314=FACE_OUTER_BOUND('',#416,.T.);
#315=FACE_OUTER_BOUND('',#419,.T.);
#316=FACE_OUTER_BOUND('',#422,.T.);
#317=FACE_OUTER_BOUND('',#425,.T.);
#318=EDGE_LOOP('',(#538,#539,#540,#541));
#319=EDGE_LOOP('',(#542,#543,#544,#545));
#320=EDGE_LOOP('',(#546,#547,#548,#549));
#321=EDGE_LOOP('',(#550,#551,#552,#553));
#322=EDGE_LOOP('',(#554,#555,#556,#557));
#323=EDGE_LOOP('',(#558,#559,#560,#561));
#324=EDGE_LOOP('',(#562,#563,#564,#565));
#325=EDGE_LOOP('',(#566,#567,#568,#569));
#326=EDGE_LOOP('',(#570,#571,#572,#573));
#327=EDGE_LOOP('',(#574,#575,#576,#577));
#328=EDGE_LOOP('',(#578,#579,#580,#581));
#329=EDGE_LOOP('',(#582,#583,#584,#585));
#330=EDGE_LOOP('',(#586,#587,#588,#589));
#331=EDGE_LOOP('',(#590,#591,#592,#593));
#332=EDGE_LOOP('',(#594,#595,#596,#597));
#333=EDGE_LOOP('',(#598,#599,#600,#601));
#334=EDGE_LOOP('',(#602,#603,#604,#605));
#335=EDGE_LOOP('',(#606,#607,#608,#609));
#336=EDGE_LOOP('',(#610,#611,#612,#613));
#337=EDGE_LOOP('',(#614,#615,#616,#617));
#338=EDGE_LOOP('',(#618,#619,#620,#621));
#339=EDGE_LOOP('',(#622,#623,#624,#625));
#340=EDGE_LOOP('',(#626,#627,#628,#629));
#341=EDGE_LOOP('',(#630,#631,#632,#633));
#342=EDGE_LOOP('',(#634,#635,#636,#637));
#343=EDGE_LOOP('',(#638,#639,#640,#641));
#344=EDGE_LOOP('',(#642,#643,#644,#645));
#345=EDGE_LOOP('',(#646,#647,#648,#649));
#346=EDGE_LOOP('',(#650,#651,#652,#653));
#347=EDGE_LOOP('',(#654,#655,#656,#657));
#348=EDGE_LOOP('',(#658,#659,#660,#661));
#349=EDGE_LOOP('',(#662,#663,#664,#665));
#350=EDGE_LOOP('',(#666,#667,#668,#669));
#351=EDGE_LOOP('',(#670,#671,#672,#673));
#352=EDGE_LOOP('',(#674,#675,#676,#677));
#353=EDGE_LOOP('',(#678,#679,#680,#681));
#354=EDGE_LOOP('',(#682,#683,#684,#685,#686,#687,#688,#689,#690,#691,#692,
#693,#694,#695,#696,#697,#698,#699,#700,#701,#702,#703,#704,#705,#706,#707,
#708,#709));
#355=EDGE_LOOP('',(#710));
#356=EDGE_LOOP('',(#711));
#357=EDGE_LOOP('',(#712));
#358=EDGE_LOOP('',(#713));
#359=EDGE_LOOP('',(#714));
#360=EDGE_LOOP('',(#715));
#361=EDGE_LOOP('',(#716));
#362=EDGE_LOOP('',(#717));
#363=EDGE_LOOP('',(#718,#719,#720,#721,#722,#723,#724,#725,#726,#727,#728,
#729,#730,#731,#732,#733,#734,#735,#736,#737,#738,#739,#740,#741,#742,#743,
#744,#745));
#364=EDGE_LOOP('',(#746));
#365=EDGE_LOOP('',(#747));
#366=EDGE_LOOP('',(#748));
#367=EDGE_LOOP('',(#749));
#368=EDGE_LOOP('',(#750));
#369=EDGE_LOOP('',(#751));
#370=EDGE_LOOP('',(#752));
#371=EDGE_LOOP('',(#753));
#372=EDGE_LOOP('',(#754));
#373=EDGE_LOOP('',(#755));
#374=EDGE_LOOP('',(#756));
#375=EDGE_LOOP('',(#757));
#376=EDGE_LOOP('',(#758));
#377=EDGE_LOOP('',(#759));
#378=EDGE_LOOP('',(#760));
#379=EDGE_LOOP('',(#761));
#380=EDGE_LOOP('',(#762));
#381=EDGE_LOOP('',(#763));
#382=EDGE_LOOP('',(#764));
#383=EDGE_LOOP('',(#765));
#384=EDGE_LOOP('',(#766));
#385=EDGE_LOOP('',(#767));
#386=EDGE_LOOP('',(#768));
#387=EDGE_LOOP('',(#769));
#388=EDGE_LOOP('',(#770));
#389=EDGE_LOOP('',(#771));
#390=EDGE_LOOP('',(#772));
#391=EDGE_LOOP('',(#773));
#392=EDGE_LOOP('',(#774));
#393=EDGE_LOOP('',(#775));
#394=EDGE_LOOP('',(#776));
#395=EDGE_LOOP('',(#777));
#396=EDGE_LOOP('',(#778));
#397=EDGE_LOOP('',(#779));
#398=EDGE_LOOP('',(#780));
#399=EDGE_LOOP('',(#781));
#400=EDGE_LOOP('',(#782,#783,#784,#785));
#401=EDGE_LOOP('',(#786,#787,#788,#789));
#402=EDGE_LOOP('',(#790,#791,#792,#793));
#403=EDGE_LOOP('',(#794,#795,#796,#797));
#404=EDGE_LOOP('',(#798,#799,#800,#801));
#405=EDGE_LOOP('',(#802));
#406=EDGE_LOOP('',(#803));
#407=EDGE_LOOP('',(#804));
#408=EDGE_LOOP('',(#805));
#409=EDGE_LOOP('',(#806));
#410=EDGE_LOOP('',(#807));
#411=EDGE_LOOP('',(#808));
#412=EDGE_LOOP('',(#809));
#413=EDGE_LOOP('',(#810,#811,#812,#813));
#414=EDGE_LOOP('',(#814));
#415=EDGE_LOOP('',(#815));
#416=EDGE_LOOP('',(#816));
#417=EDGE_LOOP('',(#817));
#418=EDGE_LOOP('',(#818));
#419=EDGE_LOOP('',(#819));
#420=EDGE_LOOP('',(#820));
#421=EDGE_LOOP('',(#821));
#422=EDGE_LOOP('',(#822));
#423=EDGE_LOOP('',(#823));
#424=EDGE_LOOP('',(#824));
#425=EDGE_LOOP('',(#825));
#426=LINE('',#1699,#482);
#427=LINE('',#1703,#483);
#428=LINE('',#1707,#484);
#429=LINE('',#1711,#485);
#430=LINE('',#1713,#486);
#431=LINE('',#1715,#487);
#432=LINE('',#1719,#488);
#433=LINE('',#1725,#489);
#434=LINE('',#1729,#490);
#435=LINE('',#1731,#491);
#436=LINE('',#1733,#492);
#437=LINE('',#1737,#493);
#438=LINE('',#1743,#494);
#439=LINE('',#1749,#495);
#440=LINE('',#1753,#496);
#441=LINE('',#1755,#497);
#442=LINE('',#1757,#498);
#443=LINE('',#1761,#499);
#444=LINE('',#1767,#500);
#445=LINE('',#1771,#501);
#446=LINE('',#1773,#502);
#447=LINE('',#1775,#503);
#448=LINE('',#1779,#504);
#449=LINE('',#1785,#505);
#450=LINE('',#1791,#506);
#451=LINE('',#1795,#507);
#452=LINE('',#1797,#508);
#453=LINE('',#1799,#509);
#454=LINE('',#1803,#510);
#455=LINE('',#1809,#511);
#456=LINE('',#1813,#512);
#457=LINE('',#1815,#513);
#458=LINE('',#1817,#514);
#459=LINE('',#1821,#515);
#460=LINE('',#1827,#516);
#461=LINE('',#1833,#517);
#462=LINE('',#1837,#518);
#463=LINE('',#1839,#519);
#464=LINE('',#1841,#520);
#465=LINE('',#1845,#521);
#466=LINE('',#1851,#522);
#467=LINE('',#1855,#523);
#468=LINE('',#1857,#524);
#469=LINE('',#1859,#525);
#470=LINE('',#1864,#526);
#471=LINE('',#1870,#527);
#472=LINE('',#1876,#528);
#473=LINE('',#1882,#529);
#474=LINE('',#1888,#530);
#475=LINE('',#1894,#531);
#476=LINE('',#1900,#532);
#477=LINE('',#1906,#533);
#478=LINE('',#1965,#534);
#479=LINE('',#1969,#535);
#480=LINE('',#1973,#536);
#481=LINE('',#1979,#537);
#482=VECTOR('',#1325,1.);
#483=VECTOR('',#1328,1.);
#484=VECTOR('',#1333,1.);
#485=VECTOR('',#1338,1.);
#486=VECTOR('',#1339,1.);
#487=VECTOR('',#1340,1.);
#488=VECTOR('',#1345,1.);
#489=VECTOR('',#1352,1.);
#490=VECTOR('',#1357,1.);
#491=VECTOR('',#1358,1.);
#492=VECTOR('',#1359,1.);
#493=VECTOR('',#1364,1.);
#494=VECTOR('',#1371,1.);
#495=VECTOR('',#1378,1.);
#496=VECTOR('',#1383,1.);
#497=VECTOR('',#1384,1.);
#498=VECTOR('',#1385,1.);
#499=VECTOR('',#1390,1.);
#500=VECTOR('',#1397,1.);
#501=VECTOR('',#1402,1.);
#502=VECTOR('',#1403,1.);
#503=VECTOR('',#1404,1.);
#504=VECTOR('',#1409,1.);
#505=VECTOR('',#1416,1.);
#506=VECTOR('',#1423,1.);
#507=VECTOR('',#1428,1.);
#508=VECTOR('',#1429,1.);
#509=VECTOR('',#1430,1.);
#510=VECTOR('',#1435,1.);
#511=VECTOR('',#1442,1.);
#512=VECTOR('',#1447,1.);
#513=VECTOR('',#1448,1.);
#514=VECTOR('',#1449,1.);
#515=VECTOR('',#1454,1.);
#516=VECTOR('',#1461,1.);
#517=VECTOR('',#1468,1.);
#518=VECTOR('',#1473,1.);
#519=VECTOR('',#1474,1.);
#520=VECTOR('',#1475,1.);
#521=VECTOR('',#1480,1.);
#522=VECTOR('',#1487,1.);
#523=VECTOR('',#1492,1.);
#524=VECTOR('',#1493,1.);
#525=VECTOR('',#1494,1.);
#526=VECTOR('',#1503,1.);
#527=VECTOR('',#1510,1.);
#528=VECTOR('',#1517,1.);
#529=VECTOR('',#1524,1.);
#530=VECTOR('',#1531,1.);
#531=VECTOR('',#1538,1.);
#532=VECTOR('',#1545,1.);
#533=VECTOR('',#1552,1.);
#534=VECTOR('',#1629,1.);
#535=VECTOR('',#1632,1.);
#536=VECTOR('',#1637,1.);
#537=VECTOR('',#1644,1.);
#538=ORIENTED_EDGE('',*,*,#930,.T.);
#539=ORIENTED_EDGE('',*,*,#931,.T.);
#540=ORIENTED_EDGE('',*,*,#932,.F.);
#541=ORIENTED_EDGE('',*,*,#933,.F.);
#542=ORIENTED_EDGE('',*,*,#934,.T.);
#543=ORIENTED_EDGE('',*,*,#935,.T.);
#544=ORIENTED_EDGE('',*,*,#936,.F.);
#545=ORIENTED_EDGE('',*,*,#931,.F.);
#546=ORIENTED_EDGE('',*,*,#937,.T.);
#547=ORIENTED_EDGE('',*,*,#938,.T.);
#548=ORIENTED_EDGE('',*,*,#939,.F.);
#549=ORIENTED_EDGE('',*,*,#935,.F.);
#550=ORIENTED_EDGE('',*,*,#940,.T.);
#551=ORIENTED_EDGE('',*,*,#941,.T.);
#552=ORIENTED_EDGE('',*,*,#942,.F.);
#553=ORIENTED_EDGE('',*,*,#938,.F.);
#554=ORIENTED_EDGE('',*,*,#943,.T.);
#555=ORIENTED_EDGE('',*,*,#944,.T.);
#556=ORIENTED_EDGE('',*,*,#945,.F.);
#557=ORIENTED_EDGE('',*,*,#941,.F.);
#558=ORIENTED_EDGE('',*,*,#946,.T.);
#559=ORIENTED_EDGE('',*,*,#947,.T.);
#560=ORIENTED_EDGE('',*,*,#948,.F.);
#561=ORIENTED_EDGE('',*,*,#944,.F.);
#562=ORIENTED_EDGE('',*,*,#949,.T.);
#563=ORIENTED_EDGE('',*,*,#950,.T.);
#564=ORIENTED_EDGE('',*,*,#951,.F.);
#565=ORIENTED_EDGE('',*,*,#947,.F.);
#566=ORIENTED_EDGE('',*,*,#952,.T.);
#567=ORIENTED_EDGE('',*,*,#953,.T.);
#568=ORIENTED_EDGE('',*,*,#954,.F.);
#569=ORIENTED_EDGE('',*,*,#950,.F.);
#570=ORIENTED_EDGE('',*,*,#955,.T.);
#571=ORIENTED_EDGE('',*,*,#956,.T.);
#572=ORIENTED_EDGE('',*,*,#957,.F.);
#573=ORIENTED_EDGE('',*,*,#953,.F.);
#574=ORIENTED_EDGE('',*,*,#958,.T.);
#575=ORIENTED_EDGE('',*,*,#959,.T.);
#576=ORIENTED_EDGE('',*,*,#960,.F.);
#577=ORIENTED_EDGE('',*,*,#956,.F.);
#578=ORIENTED_EDGE('',*,*,#961,.T.);
#579=ORIENTED_EDGE('',*,*,#962,.T.);
#580=ORIENTED_EDGE('',*,*,#963,.F.);
#581=ORIENTED_EDGE('',*,*,#959,.F.);
#582=ORIENTED_EDGE('',*,*,#964,.T.);
#583=ORIENTED_EDGE('',*,*,#965,.T.);
#584=ORIENTED_EDGE('',*,*,#966,.F.);
#585=ORIENTED_EDGE('',*,*,#962,.F.);
#586=ORIENTED_EDGE('',*,*,#967,.T.);
#587=ORIENTED_EDGE('',*,*,#968,.T.);
#588=ORIENTED_EDGE('',*,*,#969,.F.);
#589=ORIENTED_EDGE('',*,*,#965,.F.);
#590=ORIENTED_EDGE('',*,*,#970,.T.);
#591=ORIENTED_EDGE('',*,*,#971,.T.);
#592=ORIENTED_EDGE('',*,*,#972,.F.);
#593=ORIENTED_EDGE('',*,*,#968,.F.);
#594=ORIENTED_EDGE('',*,*,#973,.T.);
#595=ORIENTED_EDGE('',*,*,#974,.T.);
#596=ORIENTED_EDGE('',*,*,#975,.F.);
#597=ORIENTED_EDGE('',*,*,#971,.F.);
#598=ORIENTED_EDGE('',*,*,#976,.T.);
#599=ORIENTED_EDGE('',*,*,#977,.T.);
#600=ORIENTED_EDGE('',*,*,#978,.F.);
#601=ORIENTED_EDGE('',*,*,#974,.F.);
#602=ORIENTED_EDGE('',*,*,#979,.T.);
#603=ORIENTED_EDGE('',*,*,#980,.T.);
#604=ORIENTED_EDGE('',*,*,#981,.F.);
#605=ORIENTED_EDGE('',*,*,#977,.F.);
#606=ORIENTED_EDGE('',*,*,#982,.T.);
#607=ORIENTED_EDGE('',*,*,#983,.T.);
#608=ORIENTED_EDGE('',*,*,#984,.F.);
#609=ORIENTED_EDGE('',*,*,#980,.F.);
#610=ORIENTED_EDGE('',*,*,#985,.T.);
#611=ORIENTED_EDGE('',*,*,#986,.T.);
#612=ORIENTED_EDGE('',*,*,#987,.F.);
#613=ORIENTED_EDGE('',*,*,#983,.F.);
#614=ORIENTED_EDGE('',*,*,#988,.T.);
#615=ORIENTED_EDGE('',*,*,#989,.T.);
#616=ORIENTED_EDGE('',*,*,#990,.F.);
#617=ORIENTED_EDGE('',*,*,#986,.F.);
#618=ORIENTED_EDGE('',*,*,#991,.T.);
#619=ORIENTED_EDGE('',*,*,#992,.T.);
#620=ORIENTED_EDGE('',*,*,#993,.F.);
#621=ORIENTED_EDGE('',*,*,#989,.F.);
#622=ORIENTED_EDGE('',*,*,#994,.T.);
#623=ORIENTED_EDGE('',*,*,#995,.T.);
#624=ORIENTED_EDGE('',*,*,#996,.F.);
#625=ORIENTED_EDGE('',*,*,#992,.F.);
#626=ORIENTED_EDGE('',*,*,#997,.T.);
#627=ORIENTED_EDGE('',*,*,#998,.T.);
#628=ORIENTED_EDGE('',*,*,#999,.F.);
#629=ORIENTED_EDGE('',*,*,#995,.F.);
#630=ORIENTED_EDGE('',*,*,#1000,.T.);
#631=ORIENTED_EDGE('',*,*,#1001,.T.);
#632=ORIENTED_EDGE('',*,*,#1002,.F.);
#633=ORIENTED_EDGE('',*,*,#998,.F.);
#634=ORIENTED_EDGE('',*,*,#1003,.T.);
#635=ORIENTED_EDGE('',*,*,#1004,.T.);
#636=ORIENTED_EDGE('',*,*,#1005,.F.);
#637=ORIENTED_EDGE('',*,*,#1001,.F.);
#638=ORIENTED_EDGE('',*,*,#1006,.T.);
#639=ORIENTED_EDGE('',*,*,#1007,.T.);
#640=ORIENTED_EDGE('',*,*,#1008,.F.);
#641=ORIENTED_EDGE('',*,*,#1004,.F.);
#642=ORIENTED_EDGE('',*,*,#1009,.T.);
#643=ORIENTED_EDGE('',*,*,#1010,.T.);
#644=ORIENTED_EDGE('',*,*,#1011,.F.);
#645=ORIENTED_EDGE('',*,*,#1007,.F.);
#646=ORIENTED_EDGE('',*,*,#1012,.T.);
#647=ORIENTED_EDGE('',*,*,#933,.T.);
#648=ORIENTED_EDGE('',*,*,#1013,.F.);
#649=ORIENTED_EDGE('',*,*,#1010,.F.);
#650=ORIENTED_EDGE('',*,*,#1014,.T.);
#651=ORIENTED_EDGE('',*,*,#1015,.T.);
#652=ORIENTED_EDGE('',*,*,#1014,.F.);
#653=ORIENTED_EDGE('',*,*,#1016,.F.);
#654=ORIENTED_EDGE('',*,*,#1017,.T.);
#655=ORIENTED_EDGE('',*,*,#1018,.T.);
#656=ORIENTED_EDGE('',*,*,#1017,.F.);
#657=ORIENTED_EDGE('',*,*,#1019,.F.);
#658=ORIENTED_EDGE('',*,*,#1020,.T.);
#659=ORIENTED_EDGE('',*,*,#1021,.T.);
#660=ORIENTED_EDGE('',*,*,#1020,.F.);
#661=ORIENTED_EDGE('',*,*,#1022,.F.);
#662=ORIENTED_EDGE('',*,*,#1023,.T.);
#663=ORIENTED_EDGE('',*,*,#1024,.T.);
#664=ORIENTED_EDGE('',*,*,#1023,.F.);
#665=ORIENTED_EDGE('',*,*,#1025,.F.);
#666=ORIENTED_EDGE('',*,*,#1026,.T.);
#667=ORIENTED_EDGE('',*,*,#1027,.T.);
#668=ORIENTED_EDGE('',*,*,#1026,.F.);
#669=ORIENTED_EDGE('',*,*,#1028,.F.);
#670=ORIENTED_EDGE('',*,*,#1029,.T.);
#671=ORIENTED_EDGE('',*,*,#1030,.T.);
#672=ORIENTED_EDGE('',*,*,#1029,.F.);
#673=ORIENTED_EDGE('',*,*,#1031,.F.);
#674=ORIENTED_EDGE('',*,*,#1032,.T.);
#675=ORIENTED_EDGE('',*,*,#1033,.T.);
#676=ORIENTED_EDGE('',*,*,#1032,.F.);
#677=ORIENTED_EDGE('',*,*,#1034,.F.);
#678=ORIENTED_EDGE('',*,*,#1035,.T.);
#679=ORIENTED_EDGE('',*,*,#1036,.T.);
#680=ORIENTED_EDGE('',*,*,#1035,.F.);
#681=ORIENTED_EDGE('',*,*,#1037,.F.);
#682=ORIENTED_EDGE('',*,*,#1012,.F.);
#683=ORIENTED_EDGE('',*,*,#1009,.F.);
#684=ORIENTED_EDGE('',*,*,#1006,.F.);
#685=ORIENTED_EDGE('',*,*,#1003,.F.);
#686=ORIENTED_EDGE('',*,*,#1000,.F.);
#687=ORIENTED_EDGE('',*,*,#997,.F.);
#688=ORIENTED_EDGE('',*,*,#994,.F.);
#689=ORIENTED_EDGE('',*,*,#991,.F.);
#690=ORIENTED_EDGE('',*,*,#988,.F.);
#691=ORIENTED_EDGE('',*,*,#985,.F.);
#692=ORIENTED_EDGE('',*,*,#982,.F.);
#693=ORIENTED_EDGE('',*,*,#979,.F.);
#694=ORIENTED_EDGE('',*,*,#976,.F.);
#695=ORIENTED_EDGE('',*,*,#973,.F.);
#696=ORIENTED_EDGE('',*,*,#970,.F.);
#697=ORIENTED_EDGE('',*,*,#967,.F.);
#698=ORIENTED_EDGE('',*,*,#964,.F.);
#699=ORIENTED_EDGE('',*,*,#961,.F.);
#700=ORIENTED_EDGE('',*,*,#958,.F.);
#701=ORIENTED_EDGE('',*,*,#955,.F.);
#702=ORIENTED_EDGE('',*,*,#952,.F.);
#703=ORIENTED_EDGE('',*,*,#949,.F.);
#704=ORIENTED_EDGE('',*,*,#946,.F.);
#705=ORIENTED_EDGE('',*,*,#943,.F.);
#706=ORIENTED_EDGE('',*,*,#940,.F.);
#707=ORIENTED_EDGE('',*,*,#937,.F.);
#708=ORIENTED_EDGE('',*,*,#934,.F.);
#709=ORIENTED_EDGE('',*,*,#930,.F.);
#710=ORIENTED_EDGE('',*,*,#1016,.T.);
#711=ORIENTED_EDGE('',*,*,#1019,.T.);
#712=ORIENTED_EDGE('',*,*,#1022,.T.);
#713=ORIENTED_EDGE('',*,*,#1025,.T.);
#714=ORIENTED_EDGE('',*,*,#1028,.T.);
#715=ORIENTED_EDGE('',*,*,#1031,.T.);
#716=ORIENTED_EDGE('',*,*,#1034,.T.);
#717=ORIENTED_EDGE('',*,*,#1037,.T.);
#718=ORIENTED_EDGE('',*,*,#932,.T.);
#719=ORIENTED_EDGE('',*,*,#936,.T.);
#720=ORIENTED_EDGE('',*,*,#939,.T.);
#721=ORIENTED_EDGE('',*,*,#942,.T.);
#722=ORIENTED_EDGE('',*,*,#945,.T.);
#723=ORIENTED_EDGE('',*,*,#948,.T.);
#724=ORIENTED_EDGE('',*,*,#951,.T.);
#725=ORIENTED_EDGE('',*,*,#954,.T.);
#726=ORIENTED_EDGE('',*,*,#957,.T.);
#727=ORIENTED_EDGE('',*,*,#960,.T.);
#728=ORIENTED_EDGE('',*,*,#963,.T.);
#729=ORIENTED_EDGE('',*,*,#966,.T.);
#730=ORIENTED_EDGE('',*,*,#969,.T.);
#731=ORIENTED_EDGE('',*,*,#972,.T.);
#732=ORIENTED_EDGE('',*,*,#975,.T.);
#733=ORIENTED_EDGE('',*,*,#978,.T.);
#734=ORIENTED_EDGE('',*,*,#981,.T.);
#735=ORIENTED_EDGE('',*,*,#984,.T.);
#736=ORIENTED_EDGE('',*,*,#987,.T.);
#737=ORIENTED_EDGE('',*,*,#990,.T.);
#738=ORIENTED_EDGE('',*,*,#993,.T.);
#739=ORIENTED_EDGE('',*,*,#996,.T.);
#740=ORIENTED_EDGE('',*,*,#999,.T.);
#741=ORIENTED_EDGE('',*,*,#1002,.T.);
#742=ORIENTED_EDGE('',*,*,#1005,.T.);
#743=ORIENTED_EDGE('',*,*,#1008,.T.);
#744=ORIENTED_EDGE('',*,*,#1011,.T.);
#745=ORIENTED_EDGE('',*,*,#1013,.T.);
#746=ORIENTED_EDGE('',*,*,#1015,.F.);
#747=ORIENTED_EDGE('',*,*,#1018,.F.);
#748=ORIENTED_EDGE('',*,*,#1021,.F.);
#749=ORIENTED_EDGE('',*,*,#1024,.F.);
#750=ORIENTED_EDGE('',*,*,#1027,.F.);
#751=ORIENTED_EDGE('',*,*,#1030,.F.);
#752=ORIENTED_EDGE('',*,*,#1033,.F.);
#753=ORIENTED_EDGE('',*,*,#1036,.F.);
#754=ORIENTED_EDGE('',*,*,#1038,.T.);
#755=ORIENTED_EDGE('',*,*,#1039,.F.);
#756=ORIENTED_EDGE('',*,*,#1040,.T.);
#757=ORIENTED_EDGE('',*,*,#1038,.F.);
#758=ORIENTED_EDGE('',*,*,#1041,.T.);
#759=ORIENTED_EDGE('',*,*,#1041,.F.);
#760=ORIENTED_EDGE('',*,*,#1040,.F.);
#761=ORIENTED_EDGE('',*,*,#1042,.T.);
#762=ORIENTED_EDGE('',*,*,#1043,.F.);
#763=ORIENTED_EDGE('',*,*,#1044,.T.);
#764=ORIENTED_EDGE('',*,*,#1042,.F.);
#765=ORIENTED_EDGE('',*,*,#1045,.T.);
#766=ORIENTED_EDGE('',*,*,#1045,.F.);
#767=ORIENTED_EDGE('',*,*,#1044,.F.);
#768=ORIENTED_EDGE('',*,*,#1046,.T.);
#769=ORIENTED_EDGE('',*,*,#1047,.F.);
#770=ORIENTED_EDGE('',*,*,#1048,.T.);
#771=ORIENTED_EDGE('',*,*,#1046,.F.);
#772=ORIENTED_EDGE('',*,*,#1049,.T.);
#773=ORIENTED_EDGE('',*,*,#1049,.F.);
#774=ORIENTED_EDGE('',*,*,#1048,.F.);
#775=ORIENTED_EDGE('',*,*,#1050,.T.);
#776=ORIENTED_EDGE('',*,*,#1051,.F.);
#777=ORIENTED_EDGE('',*,*,#1052,.T.);
#778=ORIENTED_EDGE('',*,*,#1050,.F.);
#779=ORIENTED_EDGE('',*,*,#1053,.T.);
#780=ORIENTED_EDGE('',*,*,#1053,.F.);
#781=ORIENTED_EDGE('',*,*,#1052,.F.);
#782=ORIENTED_EDGE('',*,*,#1054,.T.);
#783=ORIENTED_EDGE('',*,*,#1055,.F.);
#784=ORIENTED_EDGE('',*,*,#1056,.F.);
#785=ORIENTED_EDGE('',*,*,#1057,.T.);
#786=ORIENTED_EDGE('',*,*,#1058,.T.);
#787=ORIENTED_EDGE('',*,*,#1059,.F.);
#788=ORIENTED_EDGE('',*,*,#1060,.F.);
#789=ORIENTED_EDGE('',*,*,#1055,.T.);
#790=ORIENTED_EDGE('',*,*,#1061,.T.);
#791=ORIENTED_EDGE('',*,*,#1062,.F.);
#792=ORIENTED_EDGE('',*,*,#1063,.F.);
#793=ORIENTED_EDGE('',*,*,#1059,.T.);
#794=ORIENTED_EDGE('',*,*,#1064,.T.);
#795=ORIENTED_EDGE('',*,*,#1057,.F.);
#796=ORIENTED_EDGE('',*,*,#1065,.F.);
#797=ORIENTED_EDGE('',*,*,#1062,.T.);
#798=ORIENTED_EDGE('',*,*,#1056,.T.);
#799=ORIENTED_EDGE('',*,*,#1060,.T.);
#800=ORIENTED_EDGE('',*,*,#1063,.T.);
#801=ORIENTED_EDGE('',*,*,#1065,.T.);
#802=ORIENTED_EDGE('',*,*,#1066,.F.);
#803=ORIENTED_EDGE('',*,*,#1067,.F.);
#804=ORIENTED_EDGE('',*,*,#1068,.F.);
#805=ORIENTED_EDGE('',*,*,#1069,.F.);
#806=ORIENTED_EDGE('',*,*,#1039,.T.);
#807=ORIENTED_EDGE('',*,*,#1043,.T.);
#808=ORIENTED_EDGE('',*,*,#1047,.T.);
#809=ORIENTED_EDGE('',*,*,#1051,.T.);
#810=ORIENTED_EDGE('',*,*,#1054,.F.);
#811=ORIENTED_EDGE('',*,*,#1064,.F.);
#812=ORIENTED_EDGE('',*,*,#1061,.F.);
#813=ORIENTED_EDGE('',*,*,#1058,.F.);
#814=ORIENTED_EDGE('',*,*,#1069,.T.);
#815=ORIENTED_EDGE('',*,*,#1070,.F.);
#816=ORIENTED_EDGE('',*,*,#1070,.T.);
#817=ORIENTED_EDGE('',*,*,#1068,.T.);
#818=ORIENTED_EDGE('',*,*,#1071,.F.);
#819=ORIENTED_EDGE('',*,*,#1071,.T.);
#820=ORIENTED_EDGE('',*,*,#1067,.T.);
#821=ORIENTED_EDGE('',*,*,#1072,.F.);
#822=ORIENTED_EDGE('',*,*,#1072,.T.);
#823=ORIENTED_EDGE('',*,*,#1066,.T.);
#824=ORIENTED_EDGE('',*,*,#1073,.F.);
#825=ORIENTED_EDGE('',*,*,#1073,.T.);
#826=VERTEX_POINT('',#1697);
#827=VERTEX_POINT('',#1698);
#828=VERTEX_POINT('',#1700);
#829=VERTEX_POINT('',#1702);
#830=VERTEX_POINT('',#1706);
#831=VERTEX_POINT('',#1708);
#832=VERTEX_POINT('',#1712);
#833=VERTEX_POINT('',#1714);
#834=VERTEX_POINT('',#1718);
#835=VERTEX_POINT('',#1720);
#836=VERTEX_POINT('',#1724);
#837=VERTEX_POINT('',#1726);
#838=VERTEX_POINT('',#1730);
#839=VERTEX_POINT('',#1732);
#840=VERTEX_POINT('',#1736);
#841=VERTEX_POINT('',#1738);
#842=VERTEX_POINT('',#1742);
#843=VERTEX_POINT('',#1744);
#844=VERTEX_POINT('',#1748);
#845=VERTEX_POINT('',#1750);
#846=VERTEX_POINT('',#1754);
#847=VERTEX_POINT('',#1756);
#848=VERTEX_POINT('',#1760);
#849=VERTEX_POINT('',#1762);
#850=VERTEX_POINT('',#1766);
#851=VERTEX_POINT('',#1768);
#852=VERTEX_POINT('',#1772);
#853=VERTEX_POINT('',#1774);
#854=VERTEX_POINT('',#1778);
#855=VERTEX_POINT('',#1780);
#856=VERTEX_POINT('',#1784);
#857=VERTEX_POINT('',#1786);
#858=VERTEX_POINT('',#1790);
#859=VERTEX_POINT('',#1792);
#860=VERTEX_POINT('',#1796);
#861=VERTEX_POINT('',#1798);
#862=VERTEX_POINT('',#1802);
#863=VERTEX_POINT('',#1804);
#864=VERTEX_POINT('',#1808);
#865=VERTEX_POINT('',#1810);
#866=VERTEX_POINT('',#1814);
#867=VERTEX_POINT('',#1816);
#868=VERTEX_POINT('',#1820);
#869=VERTEX_POINT('',#1822);
#870=VERTEX_POINT('',#1826);
#871=VERTEX_POINT('',#1828);
#872=VERTEX_POINT('',#1832);
#873=VERTEX_POINT('',#1834);
#874=VERTEX_POINT('',#1838);
#875=VERTEX_POINT('',#1840);
#876=VERTEX_POINT('',#1844);
#877=VERTEX_POINT('',#1846);
#878=VERTEX_POINT('',#1850);
#879=VERTEX_POINT('',#1852);
#880=VERTEX_POINT('',#1856);
#881=VERTEX_POINT('',#1858);
#882=VERTEX_POINT('',#1865);
#883=VERTEX_POINT('',#1866);
#884=VERTEX_POINT('',#1871);
#885=VERTEX_POINT('',#1872);
#886=VERTEX_POINT('',#1877);
#887=VERTEX_POINT('',#1878);
#888=VERTEX_POINT('',#1883);
#889=VERTEX_POINT('',#1884);
#890=VERTEX_POINT('',#1889);
#891=VERTEX_POINT('',#1890);
#892=VERTEX_POINT('',#1895);
#893=VERTEX_POINT('',#1896);
#894=VERTEX_POINT('',#1901);
#895=VERTEX_POINT('',#1902);
#896=VERTEX_POINT('',#1907);
#897=VERTEX_POINT('',#1908);
#898=VERTEX_POINT('',#1915);
#899=VERTEX_POINT('',#1917);
#900=VERTEX_POINT('',#1920);
#901=VERTEX_POINT('',#1923);
#902=VERTEX_POINT('',#1927);
#903=VERTEX_POINT('',#1929);
#904=VERTEX_POINT('',#1932);
#905=VERTEX_POINT('',#1935);
#906=VERTEX_POINT('',#1939);
#907=VERTEX_POINT('',#1941);
#908=VERTEX_POINT('',#1944);
#909=VERTEX_POINT('',#1947);
#910=VERTEX_POINT('',#1951);
#911=VERTEX_POINT('',#1953);
#912=VERTEX_POINT('',#1956);
#913=VERTEX_POINT('',#1959);
#914=VERTEX_POINT('',#1963);
#915=VERTEX_POINT('',#1964);
#916=VERTEX_POINT('',#1966);
#917=VERTEX_POINT('',#1968);
#918=VERTEX_POINT('',#1972);
#919=VERTEX_POINT('',#1974);
#920=VERTEX_POINT('',#1978);
#921=VERTEX_POINT('',#1980);
#922=VERTEX_POINT('',#1987);
#923=VERTEX_POINT('',#1989);
#924=VERTEX_POINT('',#1991);
#925=VERTEX_POINT('',#1993);
#926=VERTEX_POINT('',#1997);
#927=VERTEX_POINT('',#2001);
#928=VERTEX_POINT('',#2005);
#929=VERTEX_POINT('',#2009);
#930=EDGE_CURVE('',#826,#827,#1074,.T.);
#931=EDGE_CURVE('',#827,#828,#426,.T.);
#932=EDGE_CURVE('',#829,#828,#1075,.T.);
#933=EDGE_CURVE('',#826,#829,#427,.T.);
#934=EDGE_CURVE('',#827,#830,#1076,.T.);
#935=EDGE_CURVE('',#830,#831,#428,.T.);
#936=EDGE_CURVE('',#828,#831,#1077,.T.);
#937=EDGE_CURVE('',#830,#832,#429,.T.);
#938=EDGE_CURVE('',#832,#833,#430,.T.);
#939=EDGE_CURVE('',#831,#833,#431,.T.);
#940=EDGE_CURVE('',#832,#834,#1078,.T.);
#941=EDGE_CURVE('',#834,#835,#432,.T.);
#942=EDGE_CURVE('',#833,#835,#1079,.T.);
#943=EDGE_CURVE('',#834,#836,#1080,.T.);
#944=EDGE_CURVE('',#836,#837,#433,.T.);
#945=EDGE_CURVE('',#835,#837,#1081,.T.);
#946=EDGE_CURVE('',#836,#838,#434,.T.);
#947=EDGE_CURVE('',#838,#839,#435,.T.);
#948=EDGE_CURVE('',#837,#839,#436,.T.);
#949=EDGE_CURVE('',#838,#840,#1082,.T.);
#950=EDGE_CURVE('',#840,#841,#437,.T.);
#951=EDGE_CURVE('',#839,#841,#1083,.T.);
#952=EDGE_CURVE('',#840,#842,#1084,.T.);
#953=EDGE_CURVE('',#842,#843,#438,.T.);
#954=EDGE_CURVE('',#841,#843,#1085,.T.);
#955=EDGE_CURVE('',#842,#844,#1086,.T.);
#956=EDGE_CURVE('',#844,#845,#439,.T.);
#957=EDGE_CURVE('',#843,#845,#1087,.T.);
#958=EDGE_CURVE('',#844,#846,#440,.T.);
#959=EDGE_CURVE('',#846,#847,#441,.T.);
#960=EDGE_CURVE('',#845,#847,#442,.T.);
#961=EDGE_CURVE('',#846,#848,#1088,.T.);
#962=EDGE_CURVE('',#848,#849,#443,.T.);
#963=EDGE_CURVE('',#847,#849,#1089,.T.);
#964=EDGE_CURVE('',#848,#850,#1090,.T.);
#965=EDGE_CURVE('',#850,#851,#444,.T.);
#966=EDGE_CURVE('',#849,#851,#1091,.T.);
#967=EDGE_CURVE('',#850,#852,#445,.T.);
#968=EDGE_CURVE('',#852,#853,#446,.T.);
#969=EDGE_CURVE('',#851,#853,#447,.T.);
#970=EDGE_CURVE('',#852,#854,#1092,.T.);
#971=EDGE_CURVE('',#854,#855,#448,.T.);
#972=EDGE_CURVE('',#853,#855,#1093,.T.);
#973=EDGE_CURVE('',#854,#856,#1094,.T.);
#974=EDGE_CURVE('',#856,#857,#449,.T.);
#975=EDGE_CURVE('',#855,#857,#1095,.T.);
#976=EDGE_CURVE('',#856,#858,#1096,.T.);
#977=EDGE_CURVE('',#858,#859,#450,.T.);
#978=EDGE_CURVE('',#857,#859,#1097,.T.);
#979=EDGE_CURVE('',#858,#860,#451,.T.);
#980=EDGE_CURVE('',#860,#861,#452,.T.);
#981=EDGE_CURVE('',#859,#861,#453,.T.);
#982=EDGE_CURVE('',#860,#862,#1098,.T.);
#983=EDGE_CURVE('',#862,#863,#454,.T.);
#984=EDGE_CURVE('',#861,#863,#1099,.T.);
#985=EDGE_CURVE('',#862,#864,#1100,.T.);
#986=EDGE_CURVE('',#864,#865,#455,.T.);
#987=EDGE_CURVE('',#863,#865,#1101,.T.);
#988=EDGE_CURVE('',#864,#866,#456,.T.);
#989=EDGE_CURVE('',#866,#867,#457,.T.);
#990=EDGE_CURVE('',#865,#867,#458,.T.);
#991=EDGE_CURVE('',#866,#868,#1102,.T.);
#992=EDGE_CURVE('',#868,#869,#459,.T.);
#993=EDGE_CURVE('',#867,#869,#1103,.T.);
#994=EDGE_CURVE('',#868,#870,#1104,.T.);
#995=EDGE_CURVE('',#870,#871,#460,.T.);
#996=EDGE_CURVE('',#869,#871,#1105,.T.);
#997=EDGE_CURVE('',#870,#872,#1106,.T.);
#998=EDGE_CURVE('',#872,#873,#461,.T.);
#999=EDGE_CURVE('',#871,#873,#1107,.T.);
#1000=EDGE_CURVE('',#872,#874,#462,.T.);
#1001=EDGE_CURVE('',#874,#875,#463,.T.);
#1002=EDGE_CURVE('',#873,#875,#464,.T.);
#1003=EDGE_CURVE('',#874,#876,#1108,.T.);
#1004=EDGE_CURVE('',#876,#877,#465,.T.);
#1005=EDGE_CURVE('',#875,#877,#1109,.T.);
#1006=EDGE_CURVE('',#876,#878,#1110,.T.);
#1007=EDGE_CURVE('',#878,#879,#466,.T.);
#1008=EDGE_CURVE('',#877,#879,#1111,.T.);
#1009=EDGE_CURVE('',#878,#880,#467,.T.);
#1010=EDGE_CURVE('',#880,#881,#468,.T.);
#1011=EDGE_CURVE('',#879,#881,#469,.T.);
#1012=EDGE_CURVE('',#880,#826,#1112,.T.);
#1013=EDGE_CURVE('',#881,#829,#1113,.T.);
#1014=EDGE_CURVE('',#882,#883,#470,.T.);
#1015=EDGE_CURVE('',#883,#883,#1114,.T.);
#1016=EDGE_CURVE('',#882,#882,#1115,.T.);
#1017=EDGE_CURVE('',#884,#885,#471,.T.);
#1018=EDGE_CURVE('',#885,#885,#1116,.T.);
#1019=EDGE_CURVE('',#884,#884,#1117,.T.);
#1020=EDGE_CURVE('',#886,#887,#472,.T.);
#1021=EDGE_CURVE('',#887,#887,#1118,.T.);
#1022=EDGE_CURVE('',#886,#886,#1119,.T.);
#1023=EDGE_CURVE('',#888,#889,#473,.T.);
#1024=EDGE_CURVE('',#889,#889,#1120,.T.);
#1025=EDGE_CURVE('',#888,#888,#1121,.T.);
#1026=EDGE_CURVE('',#890,#891,#474,.T.);
#1027=EDGE_CURVE('',#891,#891,#1122,.T.);
#1028=EDGE_CURVE('',#890,#890,#1123,.T.);
#1029=EDGE_CURVE('',#892,#893,#475,.T.);
#1030=EDGE_CURVE('',#893,#893,#1124,.T.);
#1031=EDGE_CURVE('',#892,#892,#1125,.T.);
#1032=EDGE_CURVE('',#894,#895,#476,.T.);
#1033=EDGE_CURVE('',#895,#895,#1126,.T.);
#1034=EDGE_CURVE('',#894,#894,#1127,.T.);
#1035=EDGE_CURVE('',#896,#897,#477,.T.);
#1036=EDGE_CURVE('',#897,#897,#1128,.T.);
#1037=EDGE_CURVE('',#896,#896,#1129,.T.);
#1038=EDGE_CURVE('',#898,#898,#1130,.T.);
#1039=EDGE_CURVE('',#899,#899,#1131,.T.);
#1040=EDGE_CURVE('',#900,#900,#1132,.T.);
#1041=EDGE_CURVE('',#901,#901,#1133,.T.);
#1042=EDGE_CURVE('',#902,#902,#1134,.T.);
#1043=EDGE_CURVE('',#903,#903,#1135,.T.);
#1044=EDGE_CURVE('',#904,#904,#1136,.T.);
#1045=EDGE_CURVE('',#905,#905,#1137,.T.);
#1046=EDGE_CURVE('',#906,#906,#1138,.T.);
#1047=EDGE_CURVE('',#907,#907,#1139,.T.);
#1048=EDGE_CURVE('',#908,#908,#1140,.T.);
#1049=EDGE_CURVE('',#909,#909,#1141,.T.);
#1050=EDGE_CURVE('',#910,#910,#1142,.T.);
#1051=EDGE_CURVE('',#911,#911,#1143,.T.);
#1052=EDGE_CURVE('',#912,#912,#1144,.T.);
#1053=EDGE_CURVE('',#913,#913,#1145,.T.);
#1054=EDGE_CURVE('',#914,#915,#1146,.T.);
#1055=EDGE_CURVE('',#916,#915,#478,.T.);
#1056=EDGE_CURVE('',#917,#916,#1147,.T.);
#1057=EDGE_CURVE('',#917,#914,#479,.T.);
#1058=EDGE_CURVE('',#915,#918,#1148,.T.);
#1059=EDGE_CURVE('',#919,#918,#480,.T.);
#1060=EDGE_CURVE('',#916,#919,#1149,.T.);
#1061=EDGE_CURVE('',#918,#920,#1150,.T.);
#1062=EDGE_CURVE('',#921,#920,#481,.T.);
#1063=EDGE_CURVE('',#919,#921,#1151,.T.);
#1064=EDGE_CURVE('',#920,#914,#1152,.T.);
#1065=EDGE_CURVE('',#921,#917,#1153,.T.);
#1066=EDGE_CURVE('',#922,#922,#1154,.T.);
#1067=EDGE_CURVE('',#923,#923,#1155,.T.);
#1068=EDGE_CURVE('',#924,#924,#1156,.T.);
#1069=EDGE_CURVE('',#925,#925,#1157,.T.);
#1070=EDGE_CURVE('',#926,#926,#1158,.T.);
#1071=EDGE_CURVE('',#927,#927,#1159,.T.);
#1072=EDGE_CURVE('',#928,#928,#1160,.T.);
#1073=EDGE_CURVE('',#929,#929,#1161,.T.);
#1074=CIRCLE('',#1163,4.06388094001);
#1075=CIRCLE('',#1164,4.06388094001);
#1076=CIRCLE('',#1166,0.06388919817892);
#1077=CIRCLE('',#1167,0.06388919817892);
#1078=CIRCLE('',#1170,20.063875546846);
#1079=CIRCLE('',#1171,20.063875546846);
#1080=CIRCLE('',#1173,20.063882397301);
#1081=CIRCLE('',#1174,20.063882397301);
#1082=CIRCLE('',#1177,0.06388852608373);
#1083=CIRCLE('',#1178,0.06388852608373);
#1084=CIRCLE('',#1180,4.063882044869);
#1085=CIRCLE('',#1181,4.063882044869);
#1086=CIRCLE('',#1183,0.06394285661055);
#1087=CIRCLE('',#1184,0.06394285661055);
#1088=CIRCLE('',#1187,20.063882330996);
#1089=CIRCLE('',#1188,20.063882330996);
#1090=CIRCLE('',#1190,20.063879202938);
#1091=CIRCLE('',#1191,20.063879202938);
#1092=CIRCLE('',#1194,0.0638958394856);
#1093=CIRCLE('',#1195,0.0638958394856);
#1094=CIRCLE('',#1197,4.06388094001);
#1095=CIRCLE('',#1198,4.06388094001);
#1096=CIRCLE('',#1200,0.06388919817892);
#1097=CIRCLE('',#1201,0.06388919817892);
#1098=CIRCLE('',#1204,20.063887304119);
#1099=CIRCLE('',#1205,20.063887304119);
#1100=CIRCLE('',#1207,20.063891100295);
#1101=CIRCLE('',#1208,20.063891100295);
#1102=CIRCLE('',#1211,0.06394285661055);
#1103=CIRCLE('',#1212,0.06394285661055);
#1104=CIRCLE('',#1214,4.063882044869);
#1105=CIRCLE('',#1215,4.063882044869);
#1106=CIRCLE('',#1217,0.06388852608373);
#1107=CIRCLE('',#1218,0.06388852608373);
#1108=CIRCLE('',#1221,20.06388089636);
#1109=CIRCLE('',#1222,20.06388089636);
#1110=CIRCLE('',#1224,20.063884900085);
#1111=CIRCLE('',#1225,20.063884900085);
#1112=CIRCLE('',#1228,0.0638958394856);
#1113=CIRCLE('',#1229,0.0638958394856);
#1114=CIRCLE('',#1231,1.59999934);
#1115=CIRCLE('',#1232,1.59999934);
#1116=CIRCLE('',#1234,1.59999934);
#1117=CIRCLE('',#1235,1.59999934);
#1118=CIRCLE('',#1237,1.59999934);
#1119=CIRCLE('',#1238,1.59999934);
#1120=CIRCLE('',#1240,1.59999934);
#1121=CIRCLE('',#1241,1.59999934);
#1122=CIRCLE('',#1243,1.59999934);
#1123=CIRCLE('',#1244,1.59999934);
#1124=CIRCLE('',#1246,1.59999934);
#1125=CIRCLE('',#1247,1.59999934);
#1126=CIRCLE('',#1249,1.59999934);
#1127=CIRCLE('',#1250,1.59999934);
#1128=CIRCLE('',#1252,1.59999934);
#1129=CIRCLE('',#1253,1.59999934);
#1130=CIRCLE('',#1257,2.);
#1131=CIRCLE('',#1258,2.);
#1132=CIRCLE('',#1260,1.6);
#1133=CIRCLE('',#1262,1.6);
#1134=CIRCLE('',#1265,2.);
#1135=CIRCLE('',#1266,2.);
#1136=CIRCLE('',#1268,1.6);
#1137=CIRCLE('',#1270,1.6);
#1138=CIRCLE('',#1273,2.);
#1139=CIRCLE('',#1274,2.);
#1140=CIRCLE('',#1276,1.6);
#1141=CIRCLE('',#1278,1.6);
#1142=CIRCLE('',#1281,2.);
#1143=CIRCLE('',#1282,2.);
#1144=CIRCLE('',#1284,1.6);
#1145=CIRCLE('',#1286,1.6);
#1146=CIRCLE('',#1289,20.063891100295);
#1147=CIRCLE('',#1290,20.063891100295);
#1148=CIRCLE('',#1292,20.063891100295);
#1149=CIRCLE('',#1293,20.063891100295);
#1150=CIRCLE('',#1295,20.063891100295);
#1151=CIRCLE('',#1296,20.063891100295);
#1152=CIRCLE('',#1298,20.063891100295);
#1153=CIRCLE('',#1299,20.063891100295);
#1154=CIRCLE('',#1301,2.);
#1155=CIRCLE('',#1302,2.);
#1156=CIRCLE('',#1303,2.);
#1157=CIRCLE('',#1304,2.);
#1158=CIRCLE('',#1307,2.);
#1159=CIRCLE('',#1310,2.);
#1160=CIRCLE('',#1313,2.);
#1161=CIRCLE('',#1316,2.);
#1162=AXIS2_PLACEMENT_3D('',#1695,#1321,#1322);
#1163=AXIS2_PLACEMENT_3D('',#1696,#1323,#1324);
#1164=AXIS2_PLACEMENT_3D('',#1701,#1326,#1327);
#1165=AXIS2_PLACEMENT_3D('',#1704,#1329,#1330);
#1166=AXIS2_PLACEMENT_3D('',#1705,#1331,#1332);
#1167=AXIS2_PLACEMENT_3D('',#1709,#1334,#1335);
#1168=AXIS2_PLACEMENT_3D('',#1710,#1336,#1337);
#1169=AXIS2_PLACEMENT_3D('',#1716,#1341,#1342);
#1170=AXIS2_PLACEMENT_3D('',#1717,#1343,#1344);
#1171=AXIS2_PLACEMENT_3D('',#1721,#1346,#1347);
#1172=AXIS2_PLACEMENT_3D('',#1722,#1348,#1349);
#1173=AXIS2_PLACEMENT_3D('',#1723,#1350,#1351);
#1174=AXIS2_PLACEMENT_3D('',#1727,#1353,#1354);
#1175=AXIS2_PLACEMENT_3D('',#1728,#1355,#1356);
#1176=AXIS2_PLACEMENT_3D('',#1734,#1360,#1361);
#1177=AXIS2_PLACEMENT_3D('',#1735,#1362,#1363);
#1178=AXIS2_PLACEMENT_3D('',#1739,#1365,#1366);
#1179=AXIS2_PLACEMENT_3D('',#1740,#1367,#1368);
#1180=AXIS2_PLACEMENT_3D('',#1741,#1369,#1370);
#1181=AXIS2_PLACEMENT_3D('',#1745,#1372,#1373);
#1182=AXIS2_PLACEMENT_3D('',#1746,#1374,#1375);
#1183=AXIS2_PLACEMENT_3D('',#1747,#1376,#1377);
#1184=AXIS2_PLACEMENT_3D('',#1751,#1379,#1380);
#1185=AXIS2_PLACEMENT_3D('',#1752,#1381,#1382);
#1186=AXIS2_PLACEMENT_3D('',#1758,#1386,#1387);
#1187=AXIS2_PLACEMENT_3D('',#1759,#1388,#1389);
#1188=AXIS2_PLACEMENT_3D('',#1763,#1391,#1392);
#1189=AXIS2_PLACEMENT_3D('',#1764,#1393,#1394);
#1190=AXIS2_PLACEMENT_3D('',#1765,#1395,#1396);
#1191=AXIS2_PLACEMENT_3D('',#1769,#1398,#1399);
#1192=AXIS2_PLACEMENT_3D('',#1770,#1400,#1401);
#1193=AXIS2_PLACEMENT_3D('',#1776,#1405,#1406);
#1194=AXIS2_PLACEMENT_3D('',#1777,#1407,#1408);
#1195=AXIS2_PLACEMENT_3D('',#1781,#1410,#1411);
#1196=AXIS2_PLACEMENT_3D('',#1782,#1412,#1413);
#1197=AXIS2_PLACEMENT_3D('',#1783,#1414,#1415);
#1198=AXIS2_PLACEMENT_3D('',#1787,#1417,#1418);
#1199=AXIS2_PLACEMENT_3D('',#1788,#1419,#1420);
#1200=AXIS2_PLACEMENT_3D('',#1789,#1421,#1422);
#1201=AXIS2_PLACEMENT_3D('',#1793,#1424,#1425);
#1202=AXIS2_PLACEMENT_3D('',#1794,#1426,#1427);
#1203=AXIS2_PLACEMENT_3D('',#1800,#1431,#1432);
#1204=AXIS2_PLACEMENT_3D('',#1801,#1433,#1434);
#1205=AXIS2_PLACEMENT_3D('',#1805,#1436,#1437);
#1206=AXIS2_PLACEMENT_3D('',#1806,#1438,#1439);
#1207=AXIS2_PLACEMENT_3D('',#1807,#1440,#1441);
#1208=AXIS2_PLACEMENT_3D('',#1811,#1443,#1444);
#1209=AXIS2_PLACEMENT_3D('',#1812,#1445,#1446);
#1210=AXIS2_PLACEMENT_3D('',#1818,#1450,#1451);
#1211=AXIS2_PLACEMENT_3D('',#1819,#1452,#1453);
#1212=AXIS2_PLACEMENT_3D('',#1823,#1455,#1456);
#1213=AXIS2_PLACEMENT_3D('',#1824,#1457,#1458);
#1214=AXIS2_PLACEMENT_3D('',#1825,#1459,#1460);
#1215=AXIS2_PLACEMENT_3D('',#1829,#1462,#1463);
#1216=AXIS2_PLACEMENT_3D('',#1830,#1464,#1465);
#1217=AXIS2_PLACEMENT_3D('',#1831,#1466,#1467);
#1218=AXIS2_PLACEMENT_3D('',#1835,#1469,#1470);
#1219=AXIS2_PLACEMENT_3D('',#1836,#1471,#1472);
#1220=AXIS2_PLACEMENT_3D('',#1842,#1476,#1477);
#1221=AXIS2_PLACEMENT_3D('',#1843,#1478,#1479);
#1222=AXIS2_PLACEMENT_3D('',#1847,#1481,#1482);
#1223=AXIS2_PLACEMENT_3D('',#1848,#1483,#1484);
#1224=AXIS2_PLACEMENT_3D('',#1849,#1485,#1486);
#1225=AXIS2_PLACEMENT_3D('',#1853,#1488,#1489);
#1226=AXIS2_PLACEMENT_3D('',#1854,#1490,#1491);
#1227=AXIS2_PLACEMENT_3D('',#1860,#1495,#1496);
#1228=AXIS2_PLACEMENT_3D('',#1861,#1497,#1498);
#1229=AXIS2_PLACEMENT_3D('',#1862,#1499,#1500);
#1230=AXIS2_PLACEMENT_3D('',#1863,#1501,#1502);
#1231=AXIS2_PLACEMENT_3D('',#1867,#1504,#1505);
#1232=AXIS2_PLACEMENT_3D('',#1868,#1506,#1507);
#1233=AXIS2_PLACEMENT_3D('',#1869,#1508,#1509);
#1234=AXIS2_PLACEMENT_3D('',#1873,#1511,#1512);
#1235=AXIS2_PLACEMENT_3D('',#1874,#1513,#1514);
#1236=AXIS2_PLACEMENT_3D('',#1875,#1515,#1516);
#1237=AXIS2_PLACEMENT_3D('',#1879,#1518,#1519);
#1238=AXIS2_PLACEMENT_3D('',#1880,#1520,#1521);
#1239=AXIS2_PLACEMENT_3D('',#1881,#1522,#1523);
#1240=AXIS2_PLACEMENT_3D('',#1885,#1525,#1526);
#1241=AXIS2_PLACEMENT_3D('',#1886,#1527,#1528);
#1242=AXIS2_PLACEMENT_3D('',#1887,#1529,#1530);
#1243=AXIS2_PLACEMENT_3D('',#1891,#1532,#1533);
#1244=AXIS2_PLACEMENT_3D('',#1892,#1534,#1535);
#1245=AXIS2_PLACEMENT_3D('',#1893,#1536,#1537);
#1246=AXIS2_PLACEMENT_3D('',#1897,#1539,#1540);
#1247=AXIS2_PLACEMENT_3D('',#1898,#1541,#1542);
#1248=AXIS2_PLACEMENT_3D('',#1899,#1543,#1544);
#1249=AXIS2_PLACEMENT_3D('',#1903,#1546,#1547);
#1250=AXIS2_PLACEMENT_3D('',#1904,#1548,#1549);
#1251=AXIS2_PLACEMENT_3D('',#1905,#1550,#1551);
#1252=AXIS2_PLACEMENT_3D('',#1909,#1553,#1554);
#1253=AXIS2_PLACEMENT_3D('',#1910,#1555,#1556);
#1254=AXIS2_PLACEMENT_3D('',#1911,#1557,#1558);
#1255=AXIS2_PLACEMENT_3D('',#1912,#1559,#1560);
#1256=AXIS2_PLACEMENT_3D('',#1913,#1561,#1562);
#1257=AXIS2_PLACEMENT_3D('',#1914,#1563,#1564);
#1258=AXIS2_PLACEMENT_3D('',#1916,#1565,#1566);
#1259=AXIS2_PLACEMENT_3D('',#1918,#1567,#1568);
#1260=AXIS2_PLACEMENT_3D('',#1919,#1569,#1570);
#1261=AXIS2_PLACEMENT_3D('',#1921,#1571,#1572);
#1262=AXIS2_PLACEMENT_3D('',#1922,#1573,#1574);
#1263=AXIS2_PLACEMENT_3D('',#1924,#1575,#1576);
#1264=AXIS2_PLACEMENT_3D('',#1925,#1577,#1578);
#1265=AXIS2_PLACEMENT_3D('',#1926,#1579,#1580);
#1266=AXIS2_PLACEMENT_3D('',#1928,#1581,#1582);
#1267=AXIS2_PLACEMENT_3D('',#1930,#1583,#1584);
#1268=AXIS2_PLACEMENT_3D('',#1931,#1585,#1586);
#1269=AXIS2_PLACEMENT_3D('',#1933,#1587,#1588);
#1270=AXIS2_PLACEMENT_3D('',#1934,#1589,#1590);
#1271=AXIS2_PLACEMENT_3D('',#1936,#1591,#1592);
#1272=AXIS2_PLACEMENT_3D('',#1937,#1593,#1594);
#1273=AXIS2_PLACEMENT_3D('',#1938,#1595,#1596);
#1274=AXIS2_PLACEMENT_3D('',#1940,#1597,#1598);
#1275=AXIS2_PLACEMENT_3D('',#1942,#1599,#1600);
#1276=AXIS2_PLACEMENT_3D('',#1943,#1601,#1602);
#1277=AXIS2_PLACEMENT_3D('',#1945,#1603,#1604);
#1278=AXIS2_PLACEMENT_3D('',#1946,#1605,#1606);
#1279=AXIS2_PLACEMENT_3D('',#1948,#1607,#1608);
#1280=AXIS2_PLACEMENT_3D('',#1949,#1609,#1610);
#1281=AXIS2_PLACEMENT_3D('',#1950,#1611,#1612);
#1282=AXIS2_PLACEMENT_3D('',#1952,#1613,#1614);
#1283=AXIS2_PLACEMENT_3D('',#1954,#1615,#1616);
#1284=AXIS2_PLACEMENT_3D('',#1955,#1617,#1618);
#1285=AXIS2_PLACEMENT_3D('',#1957,#1619,#1620);
#1286=AXIS2_PLACEMENT_3D('',#1958,#1621,#1622);
#1287=AXIS2_PLACEMENT_3D('',#1960,#1623,#1624);
#1288=AXIS2_PLACEMENT_3D('',#1961,#1625,#1626);
#1289=AXIS2_PLACEMENT_3D('',#1962,#1627,#1628);
#1290=AXIS2_PLACEMENT_3D('',#1967,#1630,#1631);
#1291=AXIS2_PLACEMENT_3D('',#1970,#1633,#1634);
#1292=AXIS2_PLACEMENT_3D('',#1971,#1635,#1636);
#1293=AXIS2_PLACEMENT_3D('',#1975,#1638,#1639);
#1294=AXIS2_PLACEMENT_3D('',#1976,#1640,#1641);
#1295=AXIS2_PLACEMENT_3D('',#1977,#1642,#1643);
#1296=AXIS2_PLACEMENT_3D('',#1981,#1645,#1646);
#1297=AXIS2_PLACEMENT_3D('',#1982,#1647,#1648);
#1298=AXIS2_PLACEMENT_3D('',#1983,#1649,#1650);
#1299=AXIS2_PLACEMENT_3D('',#1984,#1651,#1652);
#1300=AXIS2_PLACEMENT_3D('',#1985,#1653,#1654);
#1301=AXIS2_PLACEMENT_3D('',#1986,#1655,#1656);
#1302=AXIS2_PLACEMENT_3D('',#1988,#1657,#1658);
#1303=AXIS2_PLACEMENT_3D('',#1990,#1659,#1660);
#1304=AXIS2_PLACEMENT_3D('',#1992,#1661,#1662);
#1305=AXIS2_PLACEMENT_3D('',#1994,#1663,#1664);
#1306=AXIS2_PLACEMENT_3D('',#1995,#1665,#1666);
#1307=AXIS2_PLACEMENT_3D('',#1996,#1667,#1668);
#1308=AXIS2_PLACEMENT_3D('',#1998,#1669,#1670);
#1309=AXIS2_PLACEMENT_3D('',#1999,#1671,#1672);
#1310=AXIS2_PLACEMENT_3D('',#2000,#1673,#1674);
#1311=AXIS2_PLACEMENT_3D('',#2002,#1675,#1676);
#1312=AXIS2_PLACEMENT_3D('',#2003,#1677,#1678);
#1313=AXIS2_PLACEMENT_3D('',#2004,#1679,#1680);
#1314=AXIS2_PLACEMENT_3D('',#2006,#1681,#1682);
#1315=AXIS2_PLACEMENT_3D('',#2007,#1683,#1684);
#1316=AXIS2_PLACEMENT_3D('',#2008,#1685,#1686);
#1317=AXIS2_PLACEMENT_3D('',#2010,#1687,#1688);
#1318=AXIS2_PLACEMENT_3D('',#2011,#1689,#1690);
#1319=AXIS2_PLACEMENT_3D('',#2012,#1691,#1692);
#1320=AXIS2_PLACEMENT_3D('',#2013,#1693,#1694);
#1321=DIRECTION('',(0.,0.,1.));
#1322=DIRECTION('',(1.,0.,0.));
#1323=DIRECTION('',(0.,0.,1.));
#1324=DIRECTION('',(-0.821976891413933,0.569520842446953,0.));
#1325=DIRECTION('',(0.,0.,1.));
#1326=DIRECTION('',(0.,0.,1.));
#1327=DIRECTION('',(-0.821976891413933,0.569520842446953,0.));
#1328=DIRECTION('',(0.,0.,1.));
#1329=DIRECTION('',(0.,0.,-1.));
#1330=DIRECTION('',(0.821976891413933,-0.569520842446953,0.));
#1331=DIRECTION('',(0.,0.,1.));
#1332=DIRECTION('',(0.278712284374951,-0.960374646967781,0.));
#1333=DIRECTION('',(0.,0.,1.));
#1334=DIRECTION('',(0.,0.,1.));
#1335=DIRECTION('',(0.278712284374951,-0.960374646967781,0.));
#1336=DIRECTION('',(0.,0.,-1.));
#1337=DIRECTION('',(-0.278712284374951,0.960374646967781,0.));
#1338=DIRECTION('',(0.707106781186547,0.707106781186547,0.));
#1339=DIRECTION('',(0.,0.,1.));
#1340=DIRECTION('',(0.707106781186547,0.707106781186547,0.));
#1341=DIRECTION('',(-0.707106781186547,0.707106781186547,0.));
#1342=DIRECTION('',(-0.707106781186547,-0.707106781186547,0.));
#1343=DIRECTION('',(0.,0.,1.));
#1344=DIRECTION('',(-0.549404023560225,-0.835556831637343,0.));
#1345=DIRECTION('',(0.,0.,1.));
#1346=DIRECTION('',(0.,0.,1.));
#1347=DIRECTION('',(-0.549404023560225,-0.835556831637343,0.));
#1348=DIRECTION('',(0.,0.,-1.));
#1349=DIRECTION('',(0.549404023560226,0.835556831637343,0.));
#1350=DIRECTION('',(0.,0.,1.));
#1351=DIRECTION('',(-0.452579414063786,-0.891724101931578,0.));
#1352=DIRECTION('',(0.,0.,1.));
#1353=DIRECTION('',(0.,0.,1.));
#1354=DIRECTION('',(-0.452579414063786,-0.891724101931578,0.));
#1355=DIRECTION('',(0.,0.,-1.));
#1356=DIRECTION('',(0.452579414063786,0.891724101931578,0.));
#1357=DIRECTION('',(0.707106781186547,-0.707106781186547,0.));
#1358=DIRECTION('',(0.,0.,1.));
#1359=DIRECTION('',(0.707106781186547,-0.707106781186547,0.));
#1360=DIRECTION('',(0.707106781186547,0.707106781186547,0.));
#1361=DIRECTION('',(-0.707106781186547,0.707106781186547,0.));
#1362=DIRECTION('',(0.,0.,1.));
#1363=DIRECTION('',(-0.964482571445378,-0.2641464922691,0.));
#1364=DIRECTION('',(0.,0.,1.));
#1365=DIRECTION('',(0.,0.,1.));
#1366=DIRECTION('',(-0.964482571445378,-0.2641464922691,0.));
#1367=DIRECTION('',(0.,0.,-1.));
#1368=DIRECTION('',(0.964482571445378,0.2641464922691,0.));
#1369=DIRECTION('',(0.,0.,1.));
#1370=DIRECTION('',(-0.707106620927029,-0.707106941446029,0.));
#1371=DIRECTION('',(0.,0.,1.));
#1372=DIRECTION('',(0.,0.,1.));
#1373=DIRECTION('',(-0.707106620927029,-0.707106941446029,0.));
#1374=DIRECTION('',(0.,0.,-1.));
#1375=DIRECTION('',(0.707106620927029,0.707106941446029,0.));
#1376=DIRECTION('',(0.,0.,1.));
#1377=DIRECTION('',(0.811066635082633,0.584953770357725,0.));
#1378=DIRECTION('',(0.,0.,1.));
#1379=DIRECTION('',(0.,0.,1.));
#1380=DIRECTION('',(0.811066635082633,0.584953770357725,0.));
#1381=DIRECTION('',(0.,0.,-1.));
#1382=DIRECTION('',(-0.811066635082633,-0.584953770357725,0.));
#1383=DIRECTION('',(-0.707106781186547,0.707106781186547,0.));
#1384=DIRECTION('',(0.,0.,1.));
#1385=DIRECTION('',(-0.707106781186547,0.707106781186547,0.));
#1386=DIRECTION('',(-0.707106781186547,-0.707106781186547,0.));
#1387=DIRECTION('',(0.707106781186547,-0.707106781186547,0.));
#1388=DIRECTION('',(0.,0.,1.));
#1389=DIRECTION('',(0.834428531371948,-0.551116163827966,0.));
#1390=DIRECTION('',(0.,0.,1.));
#1391=DIRECTION('',(0.,0.,1.));
#1392=DIRECTION('',(0.834428531371948,-0.551116163827966,0.));
#1393=DIRECTION('',(0.,0.,-1.));
#1394=DIRECTION('',(-0.834428531371948,0.551116163827966,0.));
#1395=DIRECTION('',(0.,0.,1.));
#1396=DIRECTION('',(0.89332328019538,-0.449414638236191,0.));
#1397=DIRECTION('',(0.,0.,1.));
#1398=DIRECTION('',(0.,0.,1.));
#1399=DIRECTION('',(0.89332328019538,-0.449414638236191,0.));
#1400=DIRECTION('',(0.,0.,-1.));
#1401=DIRECTION('',(-0.89332328019538,0.449414638236191,0.));
#1402=DIRECTION('',(0.707106781186547,0.707106781186547,0.));
#1403=DIRECTION('',(0.,0.,1.));
#1404=DIRECTION('',(0.707106781186547,0.707106781186547,0.));
#1405=DIRECTION('',(-0.707106781186547,0.707106781186547,0.));
#1406=DIRECTION('',(-0.707106781186547,-0.707106781186547,0.));
#1407=DIRECTION('',(0.,0.,1.));
#1408=DIRECTION('',(0.707176605187808,-0.707036950289775,0.));
#1409=DIRECTION('',(0.,0.,1.));
#1410=DIRECTION('',(0.,0.,1.));
#1411=DIRECTION('',(0.707176605187808,-0.707036950289775,0.));
#1412=DIRECTION('',(0.,0.,-1.));
#1413=DIRECTION('',(-0.707176605187808,0.707036950289775,0.));
#1414=DIRECTION('',(0.,0.,1.));
#1415=DIRECTION('',(0.821976891413933,-0.569520842446953,0.));
#1416=DIRECTION('',(0.,0.,1.));
#1417=DIRECTION('',(0.,0.,1.));
#1418=DIRECTION('',(0.821976891413933,-0.569520842446953,0.));
#1419=DIRECTION('',(0.,0.,-1.));
#1420=DIRECTION('',(-0.821976891413933,0.569520842446953,0.));
#1421=DIRECTION('',(0.,0.,1.));
#1422=DIRECTION('',(-0.278712284374951,0.960374646967781,0.));
#1423=DIRECTION('',(0.,0.,1.));
#1424=DIRECTION('',(0.,0.,1.));
#1425=DIRECTION('',(-0.278712284374951,0.960374646967781,0.));
#1426=DIRECTION('',(0.,0.,-1.));
#1427=DIRECTION('',(0.278712284374951,-0.960374646967781,0.));
#1428=DIRECTION('',(-0.707106781186547,-0.707106781186547,0.));
#1429=DIRECTION('',(0.,0.,1.));
#1430=DIRECTION('',(-0.707106781186547,-0.707106781186547,0.));
#1431=DIRECTION('',(0.707106781186547,-0.707106781186547,0.));
#1432=DIRECTION('',(0.707106781186547,0.707106781186547,0.));
#1433=DIRECTION('',(0.,0.,1.));
#1434=DIRECTION('',(0.549373662582995,0.835576794112992,0.));
#1435=DIRECTION('',(0.,0.,1.));
#1436=DIRECTION('',(0.,0.,1.));
#1437=DIRECTION('',(0.549373662582995,0.835576794112992,0.));
#1438=DIRECTION('',(0.,0.,-1.));
#1439=DIRECTION('',(-0.549373662582995,-0.835576794112992,0.));
#1440=DIRECTION('',(0.,0.,1.));
#1441=DIRECTION('',(0.45257917395806,0.891724223793119,0.));
#1442=DIRECTION('',(0.,0.,1.));
#1443=DIRECTION('',(0.,0.,1.));
#1444=DIRECTION('',(0.45257917395806,0.891724223793119,0.));
#1445=DIRECTION('',(0.,0.,-1.));
#1446=DIRECTION('',(-0.45257917395806,-0.891724223793119,0.));
#1447=DIRECTION('',(-0.707106781186547,0.707106781186547,0.));
#1448=DIRECTION('',(0.,0.,1.));
#1449=DIRECTION('',(-0.707106781186547,0.707106781186547,0.));
#1450=DIRECTION('',(-0.707106781186547,-0.707106781186547,0.));
#1451=DIRECTION('',(0.707106781186547,-0.707106781186547,0.));
#1452=DIRECTION('',(0.,0.,1.));
#1453=DIRECTION('',(0.706943002829951,0.707270521617991,0.));
#1454=DIRECTION('',(0.,0.,1.));
#1455=DIRECTION('',(0.,0.,1.));
#1456=DIRECTION('',(0.706943002829951,0.707270521617991,0.));
#1457=DIRECTION('',(0.,0.,-1.));
#1458=DIRECTION('',(-0.706943002829951,-0.707270521617991,0.));
#1459=DIRECTION('',(0.,0.,1.));
#1460=DIRECTION('',(0.705469682732174,0.708740098164176,0.));
#1461=DIRECTION('',(0.,0.,1.));
#1462=DIRECTION('',(0.,0.,1.));
#1463=DIRECTION('',(0.705469682732174,0.708740098164176,0.));
#1464=DIRECTION('',(0.,0.,-1.));
#1465=DIRECTION('',(-0.705469682732174,-0.708740098164176,0.));
#1466=DIRECTION('',(0.,0.,1.));
#1467=DIRECTION('',(-0.707076416226083,-0.707137144843082,0.));
#1468=DIRECTION('',(0.,0.,1.));
#1469=DIRECTION('',(0.,0.,1.));
#1470=DIRECTION('',(-0.707076416226083,-0.707137144843082,0.));
#1471=DIRECTION('',(0.,0.,-1.));
#1472=DIRECTION('',(0.707076416226083,0.707137144843082,0.));
#1473=DIRECTION('',(0.707106781186547,-0.707106781186547,0.));
#1474=DIRECTION('',(0.,0.,1.));
#1475=DIRECTION('',(0.707106781186547,-0.707106781186547,0.));
#1476=DIRECTION('',(0.707106781186547,0.707106781186547,0.));
#1477=DIRECTION('',(-0.707106781186547,0.707106781186547,0.));
#1478=DIRECTION('',(0.,0.,1.));
#1479=DIRECTION('',(-0.834190476762264,0.551476426041174,0.));
#1480=DIRECTION('',(0.,0.,1.));
#1481=DIRECTION('',(0.,0.,1.));
#1482=DIRECTION('',(-0.834190476762264,0.551476426041174,0.));
#1483=DIRECTION('',(0.,0.,-1.));
#1484=DIRECTION('',(0.834190476762264,-0.551476426041174,0.));
#1485=DIRECTION('',(0.,0.,1.));
#1486=DIRECTION('',(-0.893323375256215,0.449414449279108,0.));
#1487=DIRECTION('',(0.,0.,1.));
#1488=DIRECTION('',(0.,0.,1.));
#1489=DIRECTION('',(-0.893323375256215,0.449414449279108,0.));
#1490=DIRECTION('',(0.,0.,-1.));
#1491=DIRECTION('',(0.893323375256215,-0.449414449279108,0.));
#1492=DIRECTION('',(-0.707106781186547,-0.707106781186547,0.));
#1493=DIRECTION('',(0.,0.,1.));
#1494=DIRECTION('',(-0.707106781186547,-0.707106781186547,0.));
#1495=DIRECTION('',(0.707106781186547,-0.707106781186547,0.));
#1496=DIRECTION('',(0.707106781186547,0.707106781186547,0.));
#1497=DIRECTION('',(0.,0.,1.));
#1498=DIRECTION('',(-0.707176605187808,0.707036950289775,0.));
#1499=DIRECTION('',(0.,0.,1.));
#1500=DIRECTION('',(-0.707176605187808,0.707036950289775,0.));
#1501=DIRECTION('',(0.,0.,-1.));
#1502=DIRECTION('',(0.707176605187808,-0.707036950289775,0.));
#1503=DIRECTION('',(0.,0.,1.));
#1504=DIRECTION('',(0.,0.,1.));
#1505=DIRECTION('',(1.,0.,0.));
#1506=DIRECTION('',(0.,0.,1.));
#1507=DIRECTION('',(1.,0.,0.));
#1508=DIRECTION('',(0.,0.,-1.));
#1509=DIRECTION('',(-1.,0.,0.));
#1510=DIRECTION('',(0.,0.,1.));
#1511=DIRECTION('',(0.,0.,1.));
#1512=DIRECTION('',(1.,0.,0.));
#1513=DIRECTION('',(0.,0.,1.));
#1514=DIRECTION('',(1.,0.,0.));
#1515=DIRECTION('',(0.,0.,-1.));
#1516=DIRECTION('',(-1.,0.,0.));
#1517=DIRECTION('',(0.,0.,1.));
#1518=DIRECTION('',(0.,0.,1.));
#1519=DIRECTION('',(1.,0.,0.));
#1520=DIRECTION('',(0.,0.,1.));
#1521=DIRECTION('',(1.,0.,0.));
#1522=DIRECTION('',(0.,0.,-1.));
#1523=DIRECTION('',(-1.,0.,0.));
#1524=DIRECTION('',(0.,0.,1.));
#1525=DIRECTION('',(0.,0.,1.));
#1526=DIRECTION('',(1.,0.,0.));
#1527=DIRECTION('',(0.,0.,1.));
#1528=DIRECTION('',(1.,0.,0.));
#1529=DIRECTION('',(0.,0.,-1.));
#1530=DIRECTION('',(-1.,0.,0.));
#1531=DIRECTION('',(0.,0.,1.));
#1532=DIRECTION('',(0.,0.,1.));
#1533=DIRECTION('',(1.,0.,0.));
#1534=DIRECTION('',(0.,0.,1.));
#1535=DIRECTION('',(1.,0.,0.));
#1536=DIRECTION('',(0.,0.,-1.));
#1537=DIRECTION('',(-1.,0.,0.));
#1538=DIRECTION('',(0.,0.,1.));
#1539=DIRECTION('',(0.,0.,1.));
#1540=DIRECTION('',(1.,0.,0.));
#1541=DIRECTION('',(0.,0.,1.));
#1542=DIRECTION('',(1.,0.,0.));
#1543=DIRECTION('',(0.,0.,-1.));
#1544=DIRECTION('',(-1.,0.,0.));
#1545=DIRECTION('',(0.,0.,1.));
#1546=DIRECTION('',(0.,0.,1.));
#1547=DIRECTION('',(1.,0.,0.));
#1548=DIRECTION('',(0.,0.,1.));
#1549=DIRECTION('',(1.,0.,0.));
#1550=DIRECTION('',(0.,0.,-1.));
#1551=DIRECTION('',(-1.,0.,0.));
#1552=DIRECTION('',(0.,0.,1.));
#1553=DIRECTION('',(0.,0.,1.));
#1554=DIRECTION('',(1.,0.,0.));
#1555=DIRECTION('',(0.,0.,1.));
#1556=DIRECTION('',(1.,0.,0.));
#1557=DIRECTION('',(0.,0.,-1.));
#1558=DIRECTION('',(-1.,0.,0.));
#1559=DIRECTION('',(0.,0.,-1.));
#1560=DIRECTION('',(1.,0.,0.));
#1561=DIRECTION('',(0.,0.,-1.));
#1562=DIRECTION('',(1.,0.,0.));
#1563=DIRECTION('',(0.,0.,1.));
#1564=DIRECTION('',(1.,0.,0.));
#1565=DIRECTION('',(0.,0.,1.));
#1566=DIRECTION('',(1.,0.,0.));
#1567=DIRECTION('',(0.,0.,1.));
#1568=DIRECTION('',(1.,0.,0.));
#1569=DIRECTION('',(0.,0.,1.));
#1570=DIRECTION('',(1.,0.,0.));
#1571=DIRECTION('',(0.,0.,1.));
#1572=DIRECTION('',(1.,0.,0.));
#1573=DIRECTION('',(0.,0.,-1.));
#1574=DIRECTION('',(1.,0.,0.));
#1575=DIRECTION('',(0.,0.,1.));
#1576=DIRECTION('',(1.,0.,0.));
#1577=DIRECTION('',(0.,0.,1.));
#1578=DIRECTION('',(1.,0.,0.));
#1579=DIRECTION('',(0.,0.,1.));
#1580=DIRECTION('',(0.999999999999999,0.,0.));
#1581=DIRECTION('',(0.,0.,1.));
#1582=DIRECTION('',(0.999999999999999,0.,0.));
#1583=DIRECTION('',(0.,0.,1.));
#1584=DIRECTION('',(0.999999999999999,0.,0.));
#1585=DIRECTION('',(0.,0.,1.));
#1586=DIRECTION('',(1.,0.,0.));
#1587=DIRECTION('',(0.,0.,1.));
#1588=DIRECTION('',(1.,0.,0.));
#1589=DIRECTION('',(0.,0.,-1.));
#1590=DIRECTION('',(1.,0.,0.));
#1591=DIRECTION('',(0.,0.,1.));
#1592=DIRECTION('',(1.,0.,0.));
#1593=DIRECTION('',(0.,0.,1.));
#1594=DIRECTION('',(1.,0.,0.));
#1595=DIRECTION('',(0.,0.,1.));
#1596=DIRECTION('',(1.,0.,0.));
#1597=DIRECTION('',(0.,0.,1.));
#1598=DIRECTION('',(1.,0.,0.));
#1599=DIRECTION('',(0.,0.,1.));
#1600=DIRECTION('',(1.,0.,0.));
#1601=DIRECTION('',(0.,0.,1.));
#1602=DIRECTION('',(1.,0.,0.));
#1603=DIRECTION('',(0.,0.,1.));
#1604=DIRECTION('',(1.,0.,0.));
#1605=DIRECTION('',(0.,0.,-1.));
#1606=DIRECTION('',(1.,0.,0.));
#1607=DIRECTION('',(0.,0.,1.));
#1608=DIRECTION('',(1.,0.,0.));
#1609=DIRECTION('',(0.,0.,1.));
#1610=DIRECTION('',(1.,0.,0.));
#1611=DIRECTION('',(0.,0.,1.));
#1612=DIRECTION('',(1.,0.,0.));
#1613=DIRECTION('',(0.,0.,1.));
#1614=DIRECTION('',(1.,0.,0.));
#1615=DIRECTION('',(0.,0.,1.));
#1616=DIRECTION('',(1.,0.,0.));
#1617=DIRECTION('',(0.,0.,1.));
#1618=DIRECTION('',(1.,0.,0.));
#1619=DIRECTION('',(0.,0.,1.));
#1620=DIRECTION('',(1.,0.,0.));
#1621=DIRECTION('',(0.,0.,-1.));
#1622=DIRECTION('',(1.,0.,0.));
#1623=DIRECTION('',(0.,0.,1.));
#1624=DIRECTION('',(1.,0.,0.));
#1625=DIRECTION('',(0.,0.,1.));
#1626=DIRECTION('',(1.,0.,0.));
#1627=DIRECTION('',(0.,0.,1.));
#1628=DIRECTION('',(1.,0.,0.));
#1629=DIRECTION('',(0.,0.,-1.));
#1630=DIRECTION('',(0.,0.,1.));
#1631=DIRECTION('',(1.,0.,0.));
#1632=DIRECTION('',(0.,0.,-1.));
#1633=DIRECTION('',(0.,0.,-1.));
#1634=DIRECTION('',(-1.,0.,0.));
#1635=DIRECTION('',(0.,0.,1.));
#1636=DIRECTION('',(1.,0.,0.));
#1637=DIRECTION('',(0.,0.,-1.));
#1638=DIRECTION('',(0.,0.,1.));
#1639=DIRECTION('',(1.,0.,0.));
#1640=DIRECTION('',(0.,0.,-1.));
#1641=DIRECTION('',(-1.,0.,0.));
#1642=DIRECTION('',(0.,0.,1.));
#1643=DIRECTION('',(1.,0.,0.));
#1644=DIRECTION('',(0.,0.,-1.));
#1645=DIRECTION('',(0.,0.,1.));
#1646=DIRECTION('',(1.,0.,0.));
#1647=DIRECTION('',(0.,0.,-1.));
#1648=DIRECTION('',(-1.,0.,0.));
#1649=DIRECTION('',(0.,0.,1.));
#1650=DIRECTION('',(1.,0.,0.));
#1651=DIRECTION('',(0.,0.,1.));
#1652=DIRECTION('',(1.,0.,0.));
#1653=DIRECTION('',(0.,0.,-1.));
#1654=DIRECTION('',(-1.,0.,0.));
#1655=DIRECTION('',(0.,0.,1.));
#1656=DIRECTION('',(1.,0.,0.));
#1657=DIRECTION('',(0.,0.,1.));
#1658=DIRECTION('',(1.,0.,0.));
#1659=DIRECTION('',(0.,0.,1.));
#1660=DIRECTION('',(1.,0.,0.));
#1661=DIRECTION('',(0.,0.,1.));
#1662=DIRECTION('',(1.,0.,0.));
#1663=DIRECTION('',(0.,0.,1.));
#1664=DIRECTION('',(1.,0.,0.));
#1665=DIRECTION('',(0.,0.,1.));
#1666=DIRECTION('',(1.,0.,0.));
#1667=DIRECTION('',(0.,0.,1.));
#1668=DIRECTION('',(1.,0.,0.));
#1669=DIRECTION('',(0.,0.,-1.));
#1670=DIRECTION('',(-1.,0.,0.));
#1671=DIRECTION('',(0.,0.,1.));
#1672=DIRECTION('',(1.,0.,0.));
#1673=DIRECTION('',(0.,0.,1.));
#1674=DIRECTION('',(1.,0.,0.));
#1675=DIRECTION('',(0.,0.,-1.));
#1676=DIRECTION('',(-1.,0.,0.));
#1677=DIRECTION('',(0.,0.,1.));
#1678=DIRECTION('',(1.,0.,0.));
#1679=DIRECTION('',(0.,0.,1.));
#1680=DIRECTION('',(1.,0.,0.));
#1681=DIRECTION('',(0.,0.,-1.));
#1682=DIRECTION('',(-1.,0.,0.));
#1683=DIRECTION('',(0.,0.,1.));
#1684=DIRECTION('',(1.,0.,0.));
#1685=DIRECTION('',(0.,0.,1.));
#1686=DIRECTION('',(1.,0.,0.));
#1687=DIRECTION('',(0.,0.,-1.));
#1688=DIRECTION('',(-1.,0.,0.));
#1689=DIRECTION('',(0.,0.,1.));
#1690=DIRECTION('',(1.,0.,0.));
#1691=DIRECTION('',(0.,0.,1.));
#1692=DIRECTION('',(1.,0.,0.));
#1693=DIRECTION('',(0.,0.,1.));
#1694=DIRECTION('',(1.,0.,0.));
#1695=CARTESIAN_POINT('',(0.,0.,0.));
#1696=CARTESIAN_POINT('',(-25.99999753785,-25.99999791656,0.));
#1697=CARTESIAN_POINT('',(-29.34041376,-23.68553302,0.));
#1698=CARTESIAN_POINT('',(-22.68850174,-28.35565576,0.));
#1699=CARTESIAN_POINT('',(-22.68850174,-28.35565576,0.));
#1700=CARTESIAN_POINT('',(-22.68850174,-28.35565576,0.7984236));
#1701=CARTESIAN_POINT('',(-25.99999753785,-25.99999791656,0.7984236));
#1702=CARTESIAN_POINT('',(-29.34041376,-23.68553302,0.7984236));
#1703=CARTESIAN_POINT('',(-29.34041376,-23.68553302,0.));
#1704=CARTESIAN_POINT('',(-25.99999753785,-25.99999791656,0.));
#1705=CARTESIAN_POINT('',(-22.70630844437,-28.29429819385,0.));
#1706=CARTESIAN_POINT('',(-22.66113324,-28.33947596,0.));
#1707=CARTESIAN_POINT('',(-22.66113324,-28.33947596,0.));
#1708=CARTESIAN_POINT('',(-22.66113324,-28.33947596,0.7984236));
#1709=CARTESIAN_POINT('',(-22.70630844437,-28.29429819385,0.7984236));
#1710=CARTESIAN_POINT('',(-22.70630844437,-28.29429819385,0.));
#1711=CARTESIAN_POINT('',(-22.66113324,-28.33947596,0.));
#1712=CARTESIAN_POINT('',(-20.1031729,-25.78151562,0.));
#1713=CARTESIAN_POINT('',(-20.1031729,-25.78151562,0.));
#1714=CARTESIAN_POINT('',(-20.1031729,-25.78151562,0.7984236));
#1715=CARTESIAN_POINT('',(-22.66113324,-28.33947596,0.7984236));
#1716=CARTESIAN_POINT('',(-22.66113324,-28.33947596,0.));
#1717=CARTESIAN_POINT('',(-9.079998946353,-9.017007337711,0.));
#1718=CARTESIAN_POINT('',(0.000500380000001,-26.90844758,0.));
#1719=CARTESIAN_POINT('',(0.000500380000001,-26.90844758,0.));
#1720=CARTESIAN_POINT('',(0.000500380000001,-26.90844758,0.7984236));
#1721=CARTESIAN_POINT('',(-9.079998946353,-9.017007337711,0.7984236));
#1722=CARTESIAN_POINT('',(-9.079998946353,-9.017007337711,0.));
#1723=CARTESIAN_POINT('',(9.081000519212,-9.017000068005,0.));
#1724=CARTESIAN_POINT('',(20.06915214,-25.80449246,0.));
#1725=CARTESIAN_POINT('',(20.06915214,-25.80449246,0.));
#1726=CARTESIAN_POINT('',(20.06915214,-25.80449246,0.7984236));
#1727=CARTESIAN_POINT('',(9.081000519212,-9.017000068005,0.7984236));
#1728=CARTESIAN_POINT('',(9.081000519212,-9.017000068005,0.));
#1729=CARTESIAN_POINT('',(20.06915214,-25.80449246,0.));
#1730=CARTESIAN_POINT('',(23.10995886,-28.84529918,0.));
#1731=CARTESIAN_POINT('',(23.10995886,-28.84529918,0.));
#1732=CARTESIAN_POINT('',(23.10995886,-28.84529918,0.7984236));
#1733=CARTESIAN_POINT('',(20.06915214,-25.80449246,0.7984236));
#1734=CARTESIAN_POINT('',(20.06915214,-25.80449246,0.));
#1735=CARTESIAN_POINT('',(23.171578229923,-28.82842324993,0.));
#1736=CARTESIAN_POINT('',(23.12640028,-28.87359732,0.));
#1737=CARTESIAN_POINT('',(23.12640028,-28.87359732,0.));
#1738=CARTESIAN_POINT('',(23.12640028,-28.87359732,0.7984236));
#1739=CARTESIAN_POINT('',(23.171578229923,-28.82842324993,0.7984236));
#1740=CARTESIAN_POINT('',(23.171578229923,-28.82842324993,0.));
#1741=CARTESIAN_POINT('',(25.999998180593,-25.99999811685,0.));
#1742=CARTESIAN_POINT('',(28.88023434,-23.13305254,0.));
#1743=CARTESIAN_POINT('',(28.88023434,-23.13305254,0.));
#1744=CARTESIAN_POINT('',(28.88023434,-23.13305254,0.7984236));
#1745=CARTESIAN_POINT('',(25.999998180593,-25.99999811685,0.7984236));
#1746=CARTESIAN_POINT('',(25.999998180593,-25.99999811685,0.));
#1747=CARTESIAN_POINT('',(28.828372422451,-23.17045615506,0.));
#1748=CARTESIAN_POINT('',(28.87359732,-23.1252522,0.));
#1749=CARTESIAN_POINT('',(28.87359732,-23.1252522,0.));
#1750=CARTESIAN_POINT('',(28.87359732,-23.1252522,0.7984236));
#1751=CARTESIAN_POINT('',(28.828372422451,-23.17045615506,0.7984236));
#1752=CARTESIAN_POINT('',(28.828372422451,-23.17045615506,0.));
#1753=CARTESIAN_POINT('',(28.87359732,-23.1252522,0.));
#1754=CARTESIAN_POINT('',(25.82287444,-20.07452932,0.));
#1755=CARTESIAN_POINT('',(25.82287444,-20.07452932,0.));
#1756=CARTESIAN_POINT('',(25.82287444,-20.07452932,0.7984236));
#1757=CARTESIAN_POINT('',(28.87359732,-23.1252522,0.7984236));
#1758=CARTESIAN_POINT('',(28.87359732,-23.1252522,0.));
#1759=CARTESIAN_POINT('',(9.080998572923,-9.016999458253,0.));
#1760=CARTESIAN_POINT('',(27.00453324,-2.589074787895E-16,0.));
#1761=CARTESIAN_POINT('',(27.00453324,-2.589074787895E-16,0.));
#1762=CARTESIAN_POINT('',(27.00453324,-2.589074787895E-16,0.7984236));
#1763=CARTESIAN_POINT('',(9.080998572923,-9.016999458253,0.7984236));
#1764=CARTESIAN_POINT('',(9.080998572923,-9.016999458253,0.));
#1765=CARTESIAN_POINT('',(9.081002856988,9.017001013605,0.));
#1766=CARTESIAN_POINT('',(25.79498524,20.11664252,0.));
#1767=CARTESIAN_POINT('',(25.79498524,20.11664252,0.));
#1768=CARTESIAN_POINT('',(25.79498524,20.11664252,0.7984236));
#1769=CARTESIAN_POINT('',(9.081002856988,9.017001013605,0.7984236));
#1770=CARTESIAN_POINT('',(9.081002856988,9.017001013605,0.));
#1771=CARTESIAN_POINT('',(25.79498524,20.11664252,0.));
#1772=CARTESIAN_POINT('',(29.32177778,23.64343506,0.));
#1773=CARTESIAN_POINT('',(29.32177778,23.64343506,0.));
#1774=CARTESIAN_POINT('',(29.32177778,23.64343506,0.7984236));
#1775=CARTESIAN_POINT('',(25.79498524,20.11664252,0.7984236));
#1776=CARTESIAN_POINT('',(25.79498524,20.11664252,0.));
#1777=CARTESIAN_POINT('',(29.276592137147,23.688611779486,0.));
#1778=CARTESIAN_POINT('',(29.34041376,23.68553302,0.));
#1779=CARTESIAN_POINT('',(29.34041376,23.68553302,0.));
#1780=CARTESIAN_POINT('',(29.34041376,23.68553302,0.7984236));
#1781=CARTESIAN_POINT('',(29.276592137147,23.688611779486,0.7984236));
#1782=CARTESIAN_POINT('',(29.276592137147,23.688611779486,0.));
#1783=CARTESIAN_POINT('',(25.999997537855,25.99999791656,0.));
#1784=CARTESIAN_POINT('',(22.68850174,28.35565576,0.));
#1785=CARTESIAN_POINT('',(22.68850174,28.35565576,0.));
#1786=CARTESIAN_POINT('',(22.68850174,28.35565576,0.7984236));
#1787=CARTESIAN_POINT('',(25.999997537855,25.99999791656,0.7984236));
#1788=CARTESIAN_POINT('',(25.999997537855,25.99999791656,0.));
#1789=CARTESIAN_POINT('',(22.706308444371,28.294298193854,0.));
#1790=CARTESIAN_POINT('',(22.66113324,28.33947596,0.));
#1791=CARTESIAN_POINT('',(22.66113324,28.33947596,0.));
#1792=CARTESIAN_POINT('',(22.66113324,28.33947596,0.7984236));
#1793=CARTESIAN_POINT('',(22.706308444371,28.294298193854,0.7984236));
#1794=CARTESIAN_POINT('',(22.706308444371,28.294298193854,0.));
#1795=CARTESIAN_POINT('',(22.66113324,28.33947596,0.));
#1796=CARTESIAN_POINT('',(20.10356914,25.78191186,0.));
#1797=CARTESIAN_POINT('',(20.10356914,25.78191186,0.));
#1798=CARTESIAN_POINT('',(20.10356914,25.78191186,0.7984236));
#1799=CARTESIAN_POINT('',(22.66113324,28.33947596,0.7984236));
#1800=CARTESIAN_POINT('',(22.66113324,28.33947596,0.));
#1801=CARTESIAN_POINT('',(9.080997886078,9.016993228984,0.));
#1802=CARTESIAN_POINT('',(0.0005003800000013,26.90844758,0.));
#1803=CARTESIAN_POINT('',(0.0005003800000013,26.90844758,0.));
#1804=CARTESIAN_POINT('',(0.0005003800000013,26.90844758,0.7984236));
#1805=CARTESIAN_POINT('',(9.080997886078,9.016993228984,0.7984236));
#1806=CARTESIAN_POINT('',(9.080997886078,9.016993228984,0.));
#1807=CARTESIAN_POINT('',(-9.079998880545,9.016989862314,0.));
#1808=CARTESIAN_POINT('',(-20.0608946,25.80923972,0.));
#1809=CARTESIAN_POINT('',(-20.0608946,25.80923972,0.));
#1810=CARTESIAN_POINT('',(-20.0608946,25.80923972,0.7984236));
#1811=CARTESIAN_POINT('',(-9.079998880545,9.016989862314,0.7984236));
#1812=CARTESIAN_POINT('',(-9.079998880545,9.016989862314,0.));
#1813=CARTESIAN_POINT('',(-20.0608946,25.80923972,0.));
#1814=CARTESIAN_POINT('',(-23.1252522,28.87359732,0.));
#1815=CARTESIAN_POINT('',(-23.1252522,28.87359732,0.));
#1816=CARTESIAN_POINT('',(-23.1252522,28.87359732,0.7984236));
#1817=CARTESIAN_POINT('',(-20.0608946,25.80923972,0.7984236));
#1818=CARTESIAN_POINT('',(-20.0608946,25.80923972,0.));
#1819=CARTESIAN_POINT('',(-23.17045615506,28.828372422451,0.));
#1820=CARTESIAN_POINT('',(-23.13305254,28.88023434,0.));
#1821=CARTESIAN_POINT('',(-23.13305254,28.88023434,0.));
#1822=CARTESIAN_POINT('',(-23.13305254,28.88023434,0.7984236));
#1823=CARTESIAN_POINT('',(-23.17045615506,28.828372422451,0.7984236));
#1824=CARTESIAN_POINT('',(-23.17045615506,28.828372422451,0.));
#1825=CARTESIAN_POINT('',(-25.99999811685,25.999998180593,0.));
#1826=CARTESIAN_POINT('',(-28.87359732,23.12640028,0.));
#1827=CARTESIAN_POINT('',(-28.87359732,23.12640028,0.));
#1828=CARTESIAN_POINT('',(-28.87359732,23.12640028,0.7984236));
#1829=CARTESIAN_POINT('',(-25.99999811685,25.999998180593,0.7984236));
#1830=CARTESIAN_POINT('',(-25.99999811685,25.999998180593,0.));
#1831=CARTESIAN_POINT('',(-28.82842324993,23.171578229923,0.));
#1832=CARTESIAN_POINT('',(-28.84529918,23.10995886,0.));
#1833=CARTESIAN_POINT('',(-28.84529918,23.10995886,0.));
#1834=CARTESIAN_POINT('',(-28.84529918,23.10995886,0.7984236));
#1835=CARTESIAN_POINT('',(-28.82842324993,23.171578229923,0.7984236));
#1836=CARTESIAN_POINT('',(-28.82842324993,23.171578229923,0.));
#1837=CARTESIAN_POINT('',(-28.84529918,23.10995886,0.));
#1838=CARTESIAN_POINT('',(-25.81709848,20.08175816,0.));
#1839=CARTESIAN_POINT('',(-25.81709848,20.08175816,0.));
#1840=CARTESIAN_POINT('',(-25.81709848,20.08175816,0.7984236));
#1841=CARTESIAN_POINT('',(-28.84529918,23.10995886,0.7984236));
#1842=CARTESIAN_POINT('',(-28.84529918,23.10995886,0.));
#1843=CARTESIAN_POINT('',(-9.080000109362,9.017000830764,0.));
#1844=CARTESIAN_POINT('',(-27.00353248,1.356120077345E-15,0.));
#1845=CARTESIAN_POINT('',(-27.00353248,1.356120077345E-15,0.));
#1846=CARTESIAN_POINT('',(-27.00353248,1.356120077345E-15,0.7984236));
#1847=CARTESIAN_POINT('',(-9.080000109362,9.017000830764,0.7984236));
#1848=CARTESIAN_POINT('',(-9.080000109362,9.017000830764,0.));
#1849=CARTESIAN_POINT('',(-9.079995100301,-9.016999782765,0.));
#1850=CARTESIAN_POINT('',(-25.79438326,-20.11604054,0.));
#1851=CARTESIAN_POINT('',(-25.79438326,-20.11604054,0.));
#1852=CARTESIAN_POINT('',(-25.79438326,-20.11604054,0.7984236));
#1853=CARTESIAN_POINT('',(-9.079995100301,-9.016999782765,0.7984236));
#1854=CARTESIAN_POINT('',(-9.079995100301,-9.016999782765,0.));
#1855=CARTESIAN_POINT('',(-25.79438326,-20.11604054,0.));
#1856=CARTESIAN_POINT('',(-29.32177778,-23.64343506,0.));
#1857=CARTESIAN_POINT('',(-29.32177778,-23.64343506,0.));
#1858=CARTESIAN_POINT('',(-29.32177778,-23.64343506,0.7984236));
#1859=CARTESIAN_POINT('',(-25.79438326,-20.11604054,0.7984236));
#1860=CARTESIAN_POINT('',(-25.79438326,-20.11604054,0.));
#1861=CARTESIAN_POINT('',(-29.27659213714,-23.68861177948,0.));
#1862=CARTESIAN_POINT('',(-29.27659213714,-23.68861177948,0.7984236));
#1863=CARTESIAN_POINT('',(-29.27659213714,-23.68861177948,0.));
#1864=CARTESIAN_POINT('',(-24.39999946,-25.9999988,0.));
#1865=CARTESIAN_POINT('',(-24.39999946,-25.9999988,0.));
#1866=CARTESIAN_POINT('',(-24.39999946,-25.9999988,0.7984236));
#1867=CARTESIAN_POINT('',(-25.9999988,-25.9999988,0.7984236));
#1868=CARTESIAN_POINT('',(-25.9999988,-25.9999988,0.));
#1869=CARTESIAN_POINT('',(-25.9999988,-25.9999988,0.));
#1870=CARTESIAN_POINT('',(-15.20000008,-16.79999942,0.));
#1871=CARTESIAN_POINT('',(-15.20000008,-16.79999942,0.));
#1872=CARTESIAN_POINT('',(-15.20000008,-16.79999942,0.7984236));
#1873=CARTESIAN_POINT('',(-16.79999942,-16.79999942,0.7984236));
#1874=CARTESIAN_POINT('',(-16.79999942,-16.79999942,0.));
#1875=CARTESIAN_POINT('',(-16.79999942,-16.79999942,0.));
#1876=CARTESIAN_POINT('',(-24.39999946,25.9999988,0.));
#1877=CARTESIAN_POINT('',(-24.39999946,25.9999988,0.));
#1878=CARTESIAN_POINT('',(-24.39999946,25.9999988,0.7984236));
#1879=CARTESIAN_POINT('',(-25.9999988,25.9999988,0.7984236));
#1880=CARTESIAN_POINT('',(-25.9999988,25.9999988,0.));
#1881=CARTESIAN_POINT('',(-25.9999988,25.9999988,0.));
#1882=CARTESIAN_POINT('',(-15.20000008,16.79999942,0.));
#1883=CARTESIAN_POINT('',(-15.20000008,16.79999942,0.));
#1884=CARTESIAN_POINT('',(-15.20000008,16.79999942,0.7984236));
#1885=CARTESIAN_POINT('',(-16.79999942,16.79999942,0.7984236));
#1886=CARTESIAN_POINT('',(-16.79999942,16.79999942,0.));
#1887=CARTESIAN_POINT('',(-16.79999942,16.79999942,0.));
#1888=CARTESIAN_POINT('',(18.39999876,-16.79999942,0.));
#1889=CARTESIAN_POINT('',(18.39999876,-16.79999942,0.));
#1890=CARTESIAN_POINT('',(18.39999876,-16.79999942,0.7984236));
#1891=CARTESIAN_POINT('',(16.79999942,-16.79999942,0.7984236));
#1892=CARTESIAN_POINT('',(16.79999942,-16.79999942,0.));
#1893=CARTESIAN_POINT('',(16.79999942,-16.79999942,0.));
#1894=CARTESIAN_POINT('',(27.59999814,-25.9999988,0.));
#1895=CARTESIAN_POINT('',(27.59999814,-25.9999988,0.));
#1896=CARTESIAN_POINT('',(27.59999814,-25.9999988,0.7984236));
#1897=CARTESIAN_POINT('',(25.9999988,-25.9999988,0.7984236));
#1898=CARTESIAN_POINT('',(25.9999988,-25.9999988,0.));
#1899=CARTESIAN_POINT('',(25.9999988,-25.9999988,0.));
#1900=CARTESIAN_POINT('',(18.39999876,16.79999942,0.));
#1901=CARTESIAN_POINT('',(18.39999876,16.79999942,0.));
#1902=CARTESIAN_POINT('',(18.39999876,16.79999942,0.7984236));
#1903=CARTESIAN_POINT('',(16.79999942,16.79999942,0.7984236));
#1904=CARTESIAN_POINT('',(16.79999942,16.79999942,0.));
#1905=CARTESIAN_POINT('',(16.79999942,16.79999942,0.));
#1906=CARTESIAN_POINT('',(27.59999814,25.9999988,0.));
#1907=CARTESIAN_POINT('',(27.59999814,25.9999988,0.));
#1908=CARTESIAN_POINT('',(27.59999814,25.9999988,0.7984236));
#1909=CARTESIAN_POINT('',(25.9999988,25.9999988,0.7984236));
#1910=CARTESIAN_POINT('',(25.9999988,25.9999988,0.));
#1911=CARTESIAN_POINT('',(25.9999988,25.9999988,0.));
#1912=CARTESIAN_POINT('',(-29.34041376,-23.68553302,0.));
#1913=CARTESIAN_POINT('',(-29.34041376,-23.68553302,0.7984236));
#1914=CARTESIAN_POINT('',(-16.8,-16.8,-5.));
#1915=CARTESIAN_POINT('',(-14.8,-16.8,-5.));
#1916=CARTESIAN_POINT('',(-16.8,-16.8,0.));
#1917=CARTESIAN_POINT('',(-14.8,-16.8,0.));
#1918=CARTESIAN_POINT('',(-16.8,-16.8,-5.));
#1919=CARTESIAN_POINT('',(-16.8,-16.8,-5.));
#1920=CARTESIAN_POINT('',(-15.2,-16.8,-5.));
#1921=CARTESIAN_POINT('',(-16.8,-16.8,-5.));
#1922=CARTESIAN_POINT('',(-16.8,-16.8,-1.));
#1923=CARTESIAN_POINT('',(-15.2,-16.8,-1.));
#1924=CARTESIAN_POINT('',(-16.8,-16.8,-1.));
#1925=CARTESIAN_POINT('',(-16.8,-16.8,-5.));
#1926=CARTESIAN_POINT('',(16.8,-16.8,-5.));
#1927=CARTESIAN_POINT('',(18.8,-16.8,-5.));
#1928=CARTESIAN_POINT('',(16.8,-16.8,0.));
#1929=CARTESIAN_POINT('',(18.8,-16.8,0.));
#1930=CARTESIAN_POINT('',(16.8,-16.8,-5.));
#1931=CARTESIAN_POINT('',(16.8,-16.8,-5.));
#1932=CARTESIAN_POINT('',(18.4,-16.8,-5.));
#1933=CARTESIAN_POINT('',(16.8,-16.8,-5.));
#1934=CARTESIAN_POINT('',(16.8,-16.8,-1.));
#1935=CARTESIAN_POINT('',(18.4,-16.8,-1.));
#1936=CARTESIAN_POINT('',(16.8,-16.8,-1.));
#1937=CARTESIAN_POINT('',(16.8,-16.8,-5.));
#1938=CARTESIAN_POINT('',(-16.8,16.8,-5.));
#1939=CARTESIAN_POINT('',(-14.8,16.8,-5.));
#1940=CARTESIAN_POINT('',(-16.8,16.8,0.));
#1941=CARTESIAN_POINT('',(-14.8,16.8,0.));
#1942=CARTESIAN_POINT('',(-16.8,16.8,-5.));
#1943=CARTESIAN_POINT('',(-16.8,16.8,-5.));
#1944=CARTESIAN_POINT('',(-15.2,16.8,-5.));
#1945=CARTESIAN_POINT('',(-16.8,16.8,-5.));
#1946=CARTESIAN_POINT('',(-16.8,16.8,-1.));
#1947=CARTESIAN_POINT('',(-15.2,16.8,-1.));
#1948=CARTESIAN_POINT('',(-16.8,16.8,-1.));
#1949=CARTESIAN_POINT('',(-16.8,16.8,-5.));
#1950=CARTESIAN_POINT('',(16.8,16.8,-5.));
#1951=CARTESIAN_POINT('',(18.8,16.8,-5.));
#1952=CARTESIAN_POINT('',(16.8,16.8,0.));
#1953=CARTESIAN_POINT('',(18.8,16.8,0.));
#1954=CARTESIAN_POINT('',(16.8,16.8,-5.));
#1955=CARTESIAN_POINT('',(16.8,16.8,-5.));
#1956=CARTESIAN_POINT('',(18.4,16.8,-5.));
#1957=CARTESIAN_POINT('',(16.8,16.8,-5.));
#1958=CARTESIAN_POINT('',(16.8,16.8,-1.));
#1959=CARTESIAN_POINT('',(18.4,16.8,-1.));
#1960=CARTESIAN_POINT('',(16.8,16.8,-1.));
#1961=CARTESIAN_POINT('',(16.8,16.8,-5.));
#1962=CARTESIAN_POINT('',(-9.04897830734551,9.04897830734557,0.));
#1963=CARTESIAN_POINT('',(-5.74471026304479E-11,26.9563990506778,0.));
#1964=CARTESIAN_POINT('',(-26.7784389764421,-0.343888692003063,0.));
#1965=CARTESIAN_POINT('',(-26.7784389764421,-0.343888692003063,0.8));
#1966=CARTESIAN_POINT('',(-26.7784389764421,-0.343888692003063,0.8));
#1967=CARTESIAN_POINT('',(-9.04897830734551,9.04897830734557,0.8));
#1968=CARTESIAN_POINT('',(-5.74471026304479E-11,26.9563990506778,0.8));
#1969=CARTESIAN_POINT('',(-5.74471026304479E-11,26.9563990506778,0.8));
#1970=CARTESIAN_POINT('',(-9.04897830734551,9.04897830734557,0.8));
#1971=CARTESIAN_POINT('',(-8.68321088112657,-9.01120928506979,0.));
#1972=CARTESIAN_POINT('',(0.144547204612384,-27.0287122547981,0.));
#1973=CARTESIAN_POINT('',(0.144547204612384,-27.0287122547981,0.8));
#1974=CARTESIAN_POINT('',(0.144547204612384,-27.0287122547981,0.8));
#1975=CARTESIAN_POINT('',(-8.68321088112657,-9.01120928506979,0.8));
#1976=CARTESIAN_POINT('',(-8.68321088112657,-9.01120928506979,0.8));
#1977=CARTESIAN_POINT('',(9.04897830734551,-9.04897830734557,0.));
#1978=CARTESIAN_POINT('',(26.9563990506709,-4.37982983214624E-11,0.));
#1979=CARTESIAN_POINT('',(26.9563990506709,-4.37982983214624E-11,0.8));
#1980=CARTESIAN_POINT('',(26.9563990506709,-4.37982983214624E-11,0.8));
#1981=CARTESIAN_POINT('',(9.04897830734551,-9.04897830734557,0.8));
#1982=CARTESIAN_POINT('',(9.04897830734551,-9.04897830734557,0.8));
#1983=CARTESIAN_POINT('',(9.04897830734551,9.04897830734557,0.));
#1984=CARTESIAN_POINT('',(9.04897830734551,9.04897830734557,0.8));
#1985=CARTESIAN_POINT('',(9.04897830734551,9.04897830734557,0.8));
#1986=CARTESIAN_POINT('',(-9.04897830734551,-9.04897830734557,0.8));
#1987=CARTESIAN_POINT('',(-7.04897830734551,-9.04897830734557,0.8));
#1988=CARTESIAN_POINT('',(-9.01491279294946,9.04897830734557,0.8));
#1989=CARTESIAN_POINT('',(-7.01491279294946,9.04897830734557,0.8));
#1990=CARTESIAN_POINT('',(9.04897830734551,-9.04897830734557,0.8));
#1991=CARTESIAN_POINT('',(11.0489783073455,-9.04897830734557,0.8));
#1992=CARTESIAN_POINT('',(9.04897830734551,9.04897830734557,0.8));
#1993=CARTESIAN_POINT('',(11.0489783073455,9.04897830734557,0.8));
#1994=CARTESIAN_POINT('',(-8.86609459423604,0.0188845111378866,0.8));
#1995=CARTESIAN_POINT('',(-8.86609459423604,0.0188845111378866,0.));
#1996=CARTESIAN_POINT('',(9.04897830734551,9.04897830734557,9.3));
#1997=CARTESIAN_POINT('',(11.0489783073455,9.04897830734557,9.3));
#1998=CARTESIAN_POINT('',(9.04897830734551,9.04897830734557,9.3));
#1999=CARTESIAN_POINT('',(9.04897830734551,9.04897830734557,9.3));
#2000=CARTESIAN_POINT('',(9.04897830734551,-9.04897830734557,9.3));
#2001=CARTESIAN_POINT('',(11.0489783073455,-9.04897830734557,9.3));
#2002=CARTESIAN_POINT('',(9.04897830734551,-9.04897830734557,9.3));
#2003=CARTESIAN_POINT('',(9.04897830734551,-9.04897830734557,9.3));
#2004=CARTESIAN_POINT('',(-9.01491279294946,9.04897830734557,9.3));
#2005=CARTESIAN_POINT('',(-7.01491279294946,9.04897830734557,9.3));
#2006=CARTESIAN_POINT('',(-9.01491279294946,9.04897830734557,9.3));
#2007=CARTESIAN_POINT('',(-9.01491279294946,9.04897830734557,9.3));
#2008=CARTESIAN_POINT('',(-9.04897830734551,-9.04897830734557,9.3));
#2009=CARTESIAN_POINT('',(-7.04897830734551,-9.04897830734557,9.3));
#2010=CARTESIAN_POINT('',(-9.04897830734551,-9.04897830734557,9.3));
#2011=CARTESIAN_POINT('',(-9.04897830734551,-9.04897830734557,9.3));
#2012=CARTESIAN_POINT('',(0.,0.,-0.7984236));
#2013=CARTESIAN_POINT('',(-5.80000003136405E-7,-5.80000008909565E-7,5.));
#2014=MECHANICAL_DESIGN_GEOMETRIC_PRESENTATION_REPRESENTATION('',(#54),
#2017);
#2015=MECHANICAL_DESIGN_GEOMETRIC_PRESENTATION_REPRESENTATION('',(#55),
#2018);
#2016=(
GEOMETRIC_REPRESENTATION_CONTEXT(3)
GLOBAL_UNCERTAINTY_ASSIGNED_CONTEXT((#2019))
GLOBAL_UNIT_ASSIGNED_CONTEXT((#2027,#2023,#2022))
REPRESENTATION_CONTEXT('PDOA\X2\51685411\X0\360\X2\6A21578B\X0\',
'TOP_LEVEL_ASSEMBLY_PART')
);
#2017=(
GEOMETRIC_REPRESENTATION_CONTEXT(3)
GLOBAL_UNCERTAINTY_ASSIGNED_CONTEXT((#2020))
GLOBAL_UNIT_ASSIGNED_CONTEXT((#2027,#2023,#2022))
REPRESENTATION_CONTEXT('Board','COMPONENT_PART')
);
#2018=(
GEOMETRIC_REPRESENTATION_CONTEXT(3)
GLOBAL_UNCERTAINTY_ASSIGNED_CONTEXT((#2021))
GLOBAL_UNIT_ASSIGNED_CONTEXT((#2027,#2023,#2022))
REPRESENTATION_CONTEXT('\X2\4E0A75358DEF677F\X0\','COMPONENT_PART')
);
#2019=UNCERTAINTY_MEASURE_WITH_UNIT(LENGTH_MEASURE(2.E-5),#2027,
'DISTANCE_ACCURACY_VALUE','Maximum Tolerance applied to model');
#2020=UNCERTAINTY_MEASURE_WITH_UNIT(LENGTH_MEASURE(2.E-5),#2027,
'DISTANCE_ACCURACY_VALUE','Maximum Tolerance applied to model');
#2021=UNCERTAINTY_MEASURE_WITH_UNIT(LENGTH_MEASURE(2.E-5),#2027,
'DISTANCE_ACCURACY_VALUE','Maximum Tolerance applied to model');
#2022=(
NAMED_UNIT(*)
SI_UNIT($,.STERADIAN.)
SOLID_ANGLE_UNIT()
);
#2023=(
CONVERSION_BASED_UNIT('DEGREE',#2025)
NAMED_UNIT(#2024)
PLANE_ANGLE_UNIT()
);
#2024=DIMENSIONAL_EXPONENTS(0.,0.,0.,0.,0.,0.,0.);
#2025=PLANE_ANGLE_MEASURE_WITH_UNIT(PLANE_ANGLE_MEASURE(0.0174532925),#2026);
#2026=(
NAMED_UNIT(*)
PLANE_ANGLE_UNIT()
SI_UNIT($,.RADIAN.)
);
#2027=(
LENGTH_UNIT()
NAMED_UNIT(*)
SI_UNIT(.MILLI.,.METRE.)
);
ENDSEC;
END-ISO-10303-21;
